<?xml version="1.0" encoding="UTF-8"?>
<!DOCTYPE svg PUBLIC "-//W3C//DTD SVG 1.1//EN" "http://www.w3.org/Graphics/SVG/1.1/DTD/svg11.dtd">
<!-- Creator: CorelDRAW -->
<svg xmlns="http://www.w3.org/2000/svg" xml:space="preserve" width="494px" height="254px" version="1.1" shape-rendering="geometricPrecision" text-rendering="geometricPrecision" image-rendering="optimizeQuality" fill-rule="evenodd" clip-rule="evenodd"
viewBox="0 0 42454 21814"
 xmlns:xlink="http://www.w3.org/1999/xlink"
 xmlns:xodm="http://www.corel.com/coreldraw/odm/2003">
 <g id="Capa_x0020_1">
  <metadata id="CorelCorpID_0Corel-Layer"/>
  <path fill="black" fill-rule="nonzero" fill-opacity="0.129412" d="M2472 15295c366,0 676,73 931,221 254,147 451,332 589,556 138,223 221,464 248,723 27,259 -5,500 -94,723 -89,224 -237,409 -442,556 -206,148 -469,221 -790,221 44,-44 91,-158 140,-341 49,-183 63,-373 40,-570 -22,-196 -100,-372 -234,-529 -134,-156 -357,-234 -670,-234 -303,0 -558,87 -763,261 -206,174 -353,389 -442,643 -90,255 -125,534 -107,837 17,304 96,583 234,837 138,255 337,469 596,643 259,175 585,262 978,262 402,0 748,-101 1038,-302 290,-201 529,-442 717,-723 187,-281 326,-567 415,-857 89,-291 134,-530 134,-717l0 -10381c0,-45 0,-94 0,-148 0,-53 4,-107 13,-160 -419,80 -830,225 -1232,435 -402,210 -764,482 -1085,817 -322,335 -581,732 -777,1192 -197,460 -295,976 -295,1547 0,322 32,610 94,864 63,255 143,480 241,677 98,196 212,364 342,502 129,139 261,257 395,355 312,232 670,384 1071,456 0,160 -78,299 -234,415 -156,116 -355,190 -596,221 -241,31 -498,4 -770,-80 -273,-85 -529,-242 -770,-469 -242,-228 -440,-543 -597,-945 -156,-402 -234,-911 -234,-1527 0,-750 132,-1411 395,-1982 264,-572 608,-1058 1032,-1460 424,-402 906,-717 1446,-945 541,-227 1088,-377 1641,-448 72,-331 194,-677 369,-1038 174,-362 401,-692 683,-992 281,-299 616,-544 1004,-736 389,-192 833,-288 1333,-288 491,0 895,87 1212,261 317,174 559,391 724,649 165,260 254,541 268,844 13,304 -38,585 -154,844 -116,259 -293,476 -530,650 -236,174 -520,261 -850,261 -456,0 -784,-98 -985,-295 -201,-196 -321,-413 -361,-649 -40,-237 -20,-453 60,-650 80,-196 183,-295 308,-295 0,134 18,251 54,349 35,89 96,167 180,234 85,67 217,101 396,101 160,0 301,-52 422,-154 120,-103 214,-228 281,-376 67,-147 100,-310 100,-488 0,-179 -40,-342 -120,-489 -81,-148 -206,-273 -375,-375 -170,-103 -389,-154 -657,-154 -321,0 -591,96 -810,288 -219,192 -400,428 -543,709 -142,282 -252,583 -328,905 -76,321 -127,616 -154,884 474,62 898,178 1273,348 375,170 690,382 944,636 255,255 449,547 583,878 134,330 201,687 201,1071 0,563 -112,1041 -335,1433 -223,393 -572,693 -1045,898 330,53 659,141 985,261 326,121 618,295 877,523 259,227 466,522 623,884 156,361 234,810 234,1346 0,571 -73,1054 -221,1447 -147,392 -344,716 -589,971 -246,254 -525,451 -837,589 -313,138 -634,241 -965,308 -330,67 -656,105 -978,114 -321,9 -611,13 -870,13 -72,322 -199,637 -382,945 -183,308 -418,580 -703,817 -286,236 -628,426 -1025,569 -397,143 -851,214 -1360,214 -678,0 -1239,-134 -1681,-401 -442,-268 -772,-603 -991,-1005 -219,-402 -330,-835 -335,-1299 -4,-465 87,-898 275,-1300 187,-402 466,-736 837,-1004 371,-268 824,-402 1360,-402zm6681 6519c-126,0 -245,-32 -356,-97 -111,-65 -207,-152 -288,-263 -81,-111 -146,-242 -194,-393 -48,-151 -72,-313 -72,-485 0,-172 24,-334 72,-485 48,-150 113,-282 194,-395 81,-113 177,-201 288,-266 111,-65 230,-97 356,-97 116,0 227,28 333,85l0 -841c0,-36 -12,-73 -37,-111 -25,-38 -61,-61 -107,-67 -23,-7 -35,-24 -35,-50l0 -10c0,-33 17,-50 50,-50l835 0c33,0 50,17 50,50l0 10c0,26 -12,43 -35,50 -47,6 -82,29 -107,67 -25,38 -37,75 -37,111l0 2954c0,36 12,73 37,109 25,37 60,60 107,70 23,6 35,21 35,44l0 10c0,34 -17,50 -50,50l-706 0 0 -84c-106,56 -217,84 -333,84zm60 -2297c-47,0 -93,28 -140,85 -46,56 -88,132 -126,228 -39,97 -69,208 -92,336 -24,128 -35,264 -35,410 0,146 11,283 35,410 23,128 53,240 92,336 38,96 80,171 126,226 47,55 93,82 140,82 56,0 107,-24 154,-72 46,-48 86,-115 119,-201l0 -1586c-33,-77 -72,-138 -117,-184 -45,-47 -97,-70 -156,-70zm2177 2297c-156,0 -296,-32 -422,-97 -126,-65 -234,-152 -324,-263 -89,-111 -158,-242 -206,-393 -48,-151 -72,-313 -72,-485 0,-172 23,-334 70,-485 46,-150 111,-282 194,-395 82,-113 183,-201 300,-266 118,-65 250,-97 396,-97 152,0 280,30 385,90 104,59 190,135 258,226 68,91 121,191 157,301 37,109 63,214 80,315 16,101 24,191 24,269 0,78 -3,130 -9,156l-1273 0c13,259 72,464 176,614 105,151 245,227 420,227 80,0 145,-10 197,-30 51,-20 92,-43 122,-70 36,-30 62,-64 79,-104 0,0 -15,-1 -45,-3 -29,-1 -62,-10 -97,-25 -34,-14 -66,-40 -94,-77 -28,-36 -42,-87 -42,-154 0,-73 25,-134 77,-184 51,-49 112,-74 181,-74 57,0 114,20 172,62 58,41 87,110 87,206 0,80 -16,163 -48,249 -31,86 -80,166 -146,238 -67,73 -149,133 -249,179 -99,47 -215,70 -348,70zm-64 -2297c-53,0 -102,26 -147,77 -45,52 -84,122 -117,212 -33,89 -60,193 -82,313 -21,119 -34,248 -37,387l701 0c0,-112 -5,-227 -15,-343 -10,-116 -27,-222 -50,-318 -23,-96 -55,-175 -97,-236 -41,-61 -93,-92 -156,-92zm2232 2297c-33,0 -50,-16 -50,-50l0 -10c0,-23 13,-38 40,-44 46,-10 82,-33 107,-70 25,-36 37,-73 37,-109l0 -2954c0,-36 -12,-73 -37,-111 -25,-38 -61,-61 -107,-67 -27,-7 -40,-24 -40,-50l0 -10c0,-33 17,-50 50,-50l840 0c33,0 50,17 50,50l0 10c0,26 -12,43 -35,50 -46,6 -82,29 -107,67 -25,38 -37,75 -37,111l0 841c102,-57 214,-85 333,-85 126,0 243,32 353,97 109,65 205,153 288,266 83,113 148,245 194,395 46,151 70,313 70,485 0,172 -24,334 -70,485 -46,151 -111,282 -194,393 -83,111 -179,198 -288,263 -110,65 -227,97 -353,97 -119,0 -231,-28 -333,-84l0 84 -577 0 -134 0zm984 -2297c-56,0 -108,25 -154,75 -46,49 -86,117 -119,204l0 1586c30,76 68,136 114,181 47,45 100,67 159,67 47,0 93,-27 139,-82 47,-55 88,-130 125,-226 36,-96 66,-208 89,-336 23,-127 35,-264 35,-410 0,-146 -12,-282 -35,-410 -23,-128 -53,-239 -89,-336 -37,-96 -78,-172 -125,-228 -46,-57 -92,-85 -139,-85zm2093 2297c-126,0 -244,-21 -355,-65 -111,-43 -207,-103 -289,-179 -81,-77 -145,-165 -193,-267 -48,-101 -72,-211 -72,-327 0,-116 24,-226 72,-329 48,-103 112,-193 193,-269 82,-76 178,-137 289,-180 111,-43 229,-64 355,-64 146,0 287,33 423,98l0 -393c-7,-69 -25,-134 -55,-193 -26,-49 -65,-95 -117,-136 -51,-42 -125,-62 -221,-62 -93,0 -167,11 -224,34 -56,24 -96,50 -119,80 53,16 95,47 127,92 31,45 47,95 47,152 0,69 -25,130 -74,181 -50,51 -112,77 -184,77 -73,0 -135,-26 -184,-77 -50,-51 -75,-112 -75,-181 0,-4 3,-30 7,-80 5,-50 30,-104 75,-162 45,-58 118,-111 219,-159 101,-48 249,-72 445,-72 99,0 202,10 308,30 106,20 204,58 293,114 90,57 164,134 222,232 58,97 87,226 87,385l0 1437c0,36 11,73 34,109 24,37 58,60 105,70 26,6 40,21 40,44l0 10c0,34 -17,50 -50,50l-706 0 0 -99c-136,66 -277,99 -423,99zm0 -1551c-46,0 -89,19 -129,57 -40,38 -75,89 -104,153 -30,65 -54,140 -72,226 -19,86 -28,178 -28,277 0,100 9,192 28,278 18,85 42,161 72,225 29,65 64,115 104,151 40,37 83,55 129,55 23,0 55,-2 95,-5 40,-3 80,-18 122,-42 41,-25 81,-64 119,-116 38,-54 67,-130 87,-228l0 -640c-20,-99 -49,-175 -87,-228 -38,-52 -78,-91 -119,-116 -42,-25 -82,-39 -122,-42 -40,-3 -72,-5 -95,-5zm2685 -368c0,-73 25,-134 75,-184 49,-50 111,-75 184,-75 -14,-26 -37,-49 -70,-69 -33,-20 -83,-30 -149,-30 -129,0 -234,35 -313,104 -80,70 -140,153 -182,249 -41,96 -69,194 -84,293 -15,100 -23,181 -23,244l0 1104c0,36 13,73 38,109 24,37 60,60 106,70 27,6 40,21 40,44l0 10c0,34 -16,50 -49,50l-841 0c-33,0 -49,-16 -49,-50l0 -10c0,-23 13,-38 39,-44 47,-10 82,-33 105,-70 23,-36 35,-73 35,-109l0 -1914c0,-37 -12,-73 -35,-110 -23,-36 -58,-59 -105,-69 -26,-7 -39,-22 -39,-45l0 -10c0,-33 16,-50 49,-50l706 0 0 209c-3,3 8,-6 33,-27 24,-22 61,-46 109,-72 48,-27 105,-52 171,-75 67,-23 140,-35 219,-35 103,0 189,15 259,45 69,30 126,70 169,119 43,50 74,106 92,169 18,63 27,126 27,189 0,73 -25,141 -75,204 -49,63 -110,95 -183,95 -73,0 -135,-25 -184,-75 -50,-50 -75,-111 -75,-184zm1874 0c0,-73 25,-134 75,-184 50,-50 111,-75 184,-75 -13,-26 -37,-49 -70,-69 -33,-20 -82,-30 -149,-30 -129,0 -234,35 -313,104 -80,70 -140,153 -182,249 -41,96 -69,194 -84,293 -15,100 -22,181 -22,244l0 1104c0,36 12,73 37,109 25,37 60,60 107,70 26,6 40,21 40,44l0 10c0,34 -17,50 -50,50l-840 0c-34,0 -50,-16 -50,-50l0 -10c0,-23 13,-38 40,-44 46,-10 81,-33 104,-70 23,-36 35,-73 35,-109l0 -1914c0,-37 -12,-73 -35,-110 -23,-36 -58,-59 -104,-69 -27,-7 -40,-22 -40,-45l0 -10c0,-33 16,-50 50,-50l706 0 0 209c-4,3 7,-6 32,-27 25,-22 61,-46 109,-72 48,-27 106,-52 172,-75 66,-23 139,-35 219,-35 102,0 188,15 258,45 70,30 126,70 169,119 43,50 74,106 92,169 18,63 28,126 28,189 0,73 -25,141 -75,204 -50,63 -111,95 -184,95 -73,0 -134,-25 -184,-75 -50,-50 -75,-111 -75,-184zm995 -766c-80,0 -148,-28 -204,-84 -57,-57 -85,-124 -85,-204 0,-80 28,-147 85,-204 56,-56 124,-84 204,-84 79,0 147,28 204,84 56,57 84,124 84,204 0,80 -28,147 -84,204 -57,56 -125,84 -204,84zm432 314c-46,6 -82,29 -107,67 -25,38 -37,75 -37,112l0 1904c0,36 12,73 37,112 25,38 61,60 107,67 27,6 40,23 40,49l0 10c0,34 -17,50 -50,50l-840 0c-33,0 -50,-16 -50,-50l0 -10c0,-26 14,-43 40,-49 47,-7 81,-29 104,-67 24,-39 35,-76 35,-112l0 -1904c0,-37 -11,-74 -35,-112 -23,-38 -57,-61 -104,-67 -26,-7 -40,-24 -40,-50l0 -10c0,-33 17,-50 50,-50l840 0c33,0 50,17 50,50l0 10c0,26 -13,43 -40,50zm1052 -115c126,0 244,33 354,97 110,65 206,153 289,266 83,113 148,245 195,395 46,151 69,313 69,485 0,172 -23,334 -69,485 -47,151 -112,282 -195,395 -83,113 -179,201 -289,266 -110,65 -228,97 -354,97 -126,0 -245,-32 -356,-97 -112,-65 -208,-153 -290,-266 -81,-113 -146,-244 -194,-395 -48,-151 -72,-313 -72,-485 0,-172 24,-334 72,-485 48,-150 113,-282 194,-395 82,-113 178,-201 290,-266 111,-64 230,-97 356,-97zm-3 2302c47,0 90,-27 130,-82 39,-55 74,-131 104,-228 30,-96 54,-209 72,-337 18,-128 27,-265 27,-412 0,-147 -9,-284 -27,-412 -18,-128 -42,-241 -72,-337 -30,-97 -65,-172 -104,-228 -40,-54 -83,-82 -130,-82 -46,0 -89,28 -129,82 -40,56 -75,131 -104,228 -30,96 -54,209 -72,337 -19,128 -28,265 -28,412 0,147 9,284 28,412 18,128 42,241 72,337 29,97 64,173 104,228 40,55 83,82 129,82zm3232 184c-146,0 -282,-32 -408,-97 -126,-65 -237,-152 -333,-263 -96,-111 -171,-242 -226,-393 -55,-151 -82,-313 -82,-485 0,-172 28,-334 84,-485 57,-150 133,-282 229,-395 96,-113 211,-201 343,-266 133,-65 275,-97 428,-97 225,0 395,55 509,164 115,110 172,242 172,398 0,73 -25,139 -75,199 -49,60 -111,89 -184,89 -73,0 -134,-25 -184,-74 -49,-50 -74,-111 -74,-184 0,-63 20,-118 59,-164 40,-47 90,-77 150,-90 0,-3 -4,-14 -10,-32 -7,-18 -19,-36 -38,-52 -18,-17 -45,-33 -82,-47 -36,-15 -84,-23 -144,-23 -73,0 -145,20 -216,60 -71,40 -136,102 -194,186 -58,85 -105,194 -142,328 -36,135 -54,296 -54,485 0,139 17,263 52,371 35,107 81,199 139,275 58,77 127,135 206,174 80,40 164,60 254,60 86,0 160,-20 221,-60 61,-39 112,-84 152,-134 43,-56 79,-121 109,-194l115 0c0,57 -15,127 -45,212 -30,84 -77,166 -142,246 -65,79 -146,147 -244,204 -97,56 -213,84 -345,84zm1747 -2486c126,0 245,33 354,97 111,65 207,153 290,266 82,113 148,245 194,395 47,151 70,313 70,485 0,172 -23,334 -70,485 -46,151 -112,282 -194,395 -83,113 -179,201 -290,266 -109,65 -228,97 -354,97 -125,0 -245,-32 -356,-97 -112,-65 -208,-153 -289,-266 -81,-113 -147,-244 -195,-395 -48,-151 -72,-313 -72,-485 0,-172 24,-334 72,-485 48,-150 114,-282 195,-395 81,-113 177,-201 289,-266 111,-64 231,-97 356,-97zm-2 2302c46,0 89,-27 129,-82 40,-55 75,-131 105,-228 30,-96 53,-209 72,-337 18,-128 27,-265 27,-412 0,-147 -9,-284 -27,-412 -19,-128 -42,-241 -72,-337 -30,-97 -65,-172 -105,-228 -40,-54 -83,-82 -129,-82 -46,0 -90,28 -129,82 -40,56 -75,131 -105,228 -29,96 -54,209 -72,337 -18,128 -27,265 -27,412 0,147 9,284 27,412 18,128 43,241 72,337 30,97 65,173 105,228 39,55 83,82 129,82zm2173 75c46,-10 81,-33 104,-70 23,-36 35,-73 35,-109l0 -1477c0,-119 -19,-219 -57,-301 -38,-81 -104,-122 -197,-122 -66,0 -121,15 -164,43 -43,28 -78,63 -104,104 -27,42 -46,87 -57,137 -12,50 -18,96 -18,139l0 1477c0,36 13,73 38,109 24,37 60,60 106,70 27,6 40,23 40,49l0 10c0,34 -16,50 -49,50l-841 0c-33,0 -49,-16 -49,-50l0 -10c0,-26 13,-43 39,-49 47,-10 82,-33 105,-70 23,-36 35,-73 35,-109l0 -1909c0,-37 -12,-73 -35,-110 -23,-36 -58,-59 -105,-69 -26,-7 -39,-24 -39,-50l0 -10c0,-33 16,-50 49,-50l706 0 0 294c50,-73 117,-140 202,-202 84,-61 193,-92 325,-92 143,0 256,23 341,70 84,46 149,105 194,176 44,72 74,149 89,234 15,85 23,165 23,241l0 1477c0,36 12,73 37,109 25,37 60,60 107,70 26,6 39,23 39,49l0 10c0,34 -16,50 -49,50l-840 0c-34,0 -50,-16 -50,-50l0 -10c0,-26 13,-43 40,-49zm3256 109c-146,0 -282,-32 -408,-97 -126,-65 -237,-152 -333,-263 -96,-111 -171,-242 -226,-393 -55,-151 -82,-313 -82,-485 0,-172 28,-334 85,-485 56,-150 132,-282 228,-395 96,-113 211,-201 343,-266 133,-65 275,-97 428,-97 225,0 395,55 509,164 115,110 172,242 172,398 0,73 -25,139 -75,199 -49,60 -111,89 -183,89 -73,0 -135,-25 -184,-74 -50,-50 -75,-111 -75,-184 0,-63 20,-118 60,-164 39,-47 89,-77 149,-90 0,-3 -4,-14 -10,-32 -7,-18 -19,-36 -37,-52 -19,-17 -46,-33 -83,-47 -36,-15 -84,-23 -144,-23 -73,0 -145,20 -216,60 -71,40 -136,102 -194,186 -58,85 -105,194 -142,328 -36,135 -54,296 -54,485 0,139 17,263 52,371 35,107 81,199 139,275 58,77 127,135 207,174 79,40 164,60 253,60 86,0 160,-20 221,-60 62,-39 112,-84 152,-134 43,-56 79,-121 109,-194l115 0c0,57 -15,127 -45,212 -30,84 -77,166 -142,246 -64,79 -146,147 -243,204 -98,56 -213,84 -346,84zm1740 -3420c-46,10 -82,33 -107,69 -25,37 -37,73 -37,109l0 2954c0,36 12,73 37,112 25,38 61,60 107,67 23,6 35,23 35,49l0 10c0,34 -17,50 -50,50l-835 0c-33,0 -50,-16 -50,-50l0 -10c0,-26 12,-43 35,-49 47,-7 82,-29 107,-67 25,-39 37,-76 37,-112l0 -2954c0,-36 -12,-72 -37,-109 -25,-36 -60,-59 -107,-69 -23,-7 -35,-22 -35,-45l0 -10c0,-33 17,-50 50,-50l835 0c33,0 50,17 50,50l0 10c0,23 -12,38 -35,45zm1024 3420c-126,0 -244,-21 -355,-65 -111,-43 -207,-103 -288,-179 -82,-77 -146,-165 -194,-267 -48,-101 -72,-211 -72,-327 0,-116 24,-226 72,-329 48,-103 112,-193 194,-269 81,-76 177,-137 288,-180 111,-43 229,-64 355,-64 146,0 287,33 423,98l0 -393c-7,-69 -25,-134 -55,-193 -26,-49 -65,-95 -117,-136 -51,-42 -125,-62 -221,-62 -93,0 -167,11 -224,34 -56,24 -96,50 -119,80 53,16 95,47 127,92 31,45 47,95 47,152 0,69 -25,130 -74,181 -50,51 -111,77 -184,77 -73,0 -135,-26 -184,-77 -50,-51 -75,-112 -75,-181 0,-4 3,-30 8,-80 5,-50 29,-104 74,-162 45,-58 118,-111 219,-159 101,-48 249,-72 445,-72 99,0 202,10 308,30 106,20 204,58 293,114 90,57 164,134 222,232 58,97 87,226 87,385l0 1437c0,36 11,73 34,109 24,37 59,60 105,70 26,6 40,21 40,44l0 10c0,34 -17,50 -50,50l-706 0 0 -99c-136,66 -277,99 -423,99zm0 -1551c-46,0 -89,19 -129,57 -40,38 -74,89 -104,153 -30,65 -54,140 -72,226 -19,86 -28,178 -28,277 0,100 9,192 28,278 18,85 42,161 72,225 30,65 64,115 104,151 40,37 83,55 129,55 24,0 55,-2 95,-5 40,-3 80,-18 122,-42 41,-25 81,-64 119,-116 38,-54 67,-130 87,-228l0 -640c-20,-99 -49,-175 -87,-228 -38,-52 -78,-91 -119,-116 -42,-25 -82,-39 -122,-42 -40,-3 -71,-5 -95,-5zm1815 -393c0,90 30,159 90,209 59,50 133,92 221,127 88,35 183,68 286,99 102,32 198,74 286,127 87,53 161,124 221,214 59,89 89,209 89,358 0,119 -25,228 -74,328 -50,99 -116,185 -197,256 -81,71 -175,127 -283,166 -108,40 -220,60 -336,60 -215,0 -384,-36 -507,-109 -122,-73 -209,-159 -261,-256 -51,-98 -72,-196 -62,-294 10,-97 38,-170 85,-216 56,-66 124,-99 203,-99 73,0 135,24 184,74 50,50 75,111 75,184 0,73 -25,134 -75,184 -49,50 -111,75 -184,75 -36,0 -74,-9 -114,-25 33,68 86,128 159,180 73,53 181,78 323,78 90,0 168,-12 234,-37 66,-25 122,-56 167,-94 44,-38 78,-80 101,-126 24,-47 35,-93 35,-140 0,-82 -29,-148 -87,-195 -58,-48 -130,-90 -216,-124 -86,-35 -179,-70 -278,-105 -100,-35 -193,-80 -279,-136 -86,-56 -158,-129 -216,-219 -58,-89 -87,-207 -87,-357 0,-102 19,-197 57,-285 38,-88 93,-164 164,-228 71,-64 159,-116 264,-154 104,-38 221,-57 350,-57 239,0 414,59 525,177 111,117 166,262 166,435 0,69 -25,130 -74,181 -50,52 -111,77 -184,77 -73,0 -135,-25 -184,-77 -50,-51 -75,-112 -75,-181 0,-73 25,-135 75,-187 49,-51 111,-77 184,-77 13,0 33,3 59,10 -36,-56 -84,-99 -144,-129 -60,-30 -139,-45 -238,-45 -146,0 -257,35 -334,105 -76,69 -114,152 -114,248zm2377 1944c-156,0 -297,-32 -423,-97 -126,-65 -234,-152 -323,-263 -90,-111 -158,-242 -206,-393 -49,-151 -73,-313 -73,-485 0,-172 24,-334 70,-485 46,-150 111,-282 194,-395 83,-113 183,-201 301,-266 117,-65 249,-97 395,-97 152,0 281,30 385,90 105,59 191,135 259,226 68,91 120,191 156,301 37,109 63,214 80,315 17,101 25,191 25,269 0,78 -4,130 -10,156l-1273 0c13,259 72,464 177,614 104,151 244,227 420,227 79,0 145,-10 196,-30 51,-20 92,-43 122,-70 36,-30 63,-64 79,-104 0,0 -14,-1 -44,-3 -30,-1 -62,-10 -97,-25 -35,-14 -67,-40 -95,-77 -28,-36 -42,-87 -42,-154 0,-73 26,-134 77,-184 51,-49 112,-74 182,-74 56,0 113,20 171,62 58,41 87,110 87,206 0,80 -16,163 -47,249 -32,86 -81,166 -147,238 -66,73 -149,133 -248,179 -100,47 -216,70 -348,70zm-65 -2297c-53,0 -102,26 -147,77 -44,52 -83,122 -117,212 -33,89 -60,193 -82,313 -21,119 -34,248 -37,387l701 0c0,-112 -5,-227 -15,-343 -10,-116 -26,-222 -49,-318 -24,-96 -56,-175 -97,-236 -42,-61 -94,-92 -157,-92zm-24759 -10956c-556,0 -1049,-68 -1480,-202 -430,-135 -805,-314 -1123,-540 -319,-224 -587,-483 -804,-777 -218,-293 -393,-601 -525,-919 -132,-319 -228,-638 -286,-960 -58,-321 -87,-620 -87,-898 0,-616 85,-1157 255,-1626 171,-470 400,-864 690,-1182 289,-320 628,-561 1016,-724 388,-164 802,-246 1241,-246 314,0 577,67 791,202 213,136 375,303 487,503 112,200 174,418 185,654 12,236 -28,454 -117,654 -90,201 -229,368 -417,503 -189,135 -427,202 -714,202 -206,0 -376,-27 -511,-81 -135,-53 -241,-124 -320,-212 -78,-87 -133,-185 -164,-292 -32,-108 -48,-215 -48,-323 0,-180 36,-323 108,-431 72,-107 149,-186 232,-235 83,-50 161,-75 232,-78 72,-2 108,13 108,44 -54,49 -90,122 -108,219 -18,96 -14,192 10,286 25,94 73,176 145,245 72,70 175,105 310,105 161,0 293,-44 397,-132 103,-87 177,-195 222,-323 44,-127 60,-268 47,-420 -14,-153 -55,-293 -125,-421 -69,-127 -169,-235 -299,-323 -130,-87 -287,-131 -471,-131 -350,0 -665,108 -945,323 -281,216 -516,499 -707,851 -190,352 -334,753 -430,1201 -97,449 -136,909 -118,1380 18,470 95,930 232,1379 137,448 343,849 619,1201 276,352 623,636 1043,851 419,215 918,323 1497,323 80,0 148,-6 202,-17 53,-11 96,-24 127,-37 36,-18 65,-36 88,-54 27,0 44,24 50,71 7,47 -5,100 -37,158 -31,58 -87,111 -168,158 -81,47 -191,71 -330,71zm-585 -1682c-170,0 -331,-30 -481,-88 -150,-58 -280,-140 -390,-243 -110,-103 -198,-223 -263,-361 -65,-137 -97,-285 -97,-442 0,-157 32,-306 97,-445 65,-140 153,-261 263,-365 110,-103 240,-185 390,-243 150,-58 311,-87 481,-87 197,0 388,44 572,133l0 -532c-9,-94 -34,-181 -74,-261 -36,-67 -89,-129 -158,-185 -70,-56 -169,-84 -300,-84 -125,0 -226,16 -302,47 -77,32 -130,68 -162,108 72,22 129,64 172,124 42,61 64,129 64,206 0,94 -34,176 -101,245 -67,70 -150,104 -249,104 -99,0 -182,-34 -249,-104 -67,-69 -101,-151 -101,-245 0,-5 3,-41 10,-108 7,-67 40,-140 101,-219 61,-78 159,-150 296,-215 137,-65 338,-98 602,-98 135,0 274,14 417,41 144,27 276,78 397,154 121,77 221,181 300,313 78,133 117,306 117,522l0 1944c0,49 16,99 48,148 31,49 78,81 141,94 36,9 54,29 54,61l0 13c0,45 -23,68 -68,68l-955 0 0 -134c-184,89 -375,134 -572,134zm0 -2100c-63,0 -121,26 -175,78 -54,51 -101,120 -141,207 -40,88 -73,190 -98,305 -24,117 -37,241 -37,376 0,135 13,259 37,376 25,115 58,217 98,305 40,87 87,154 141,204 54,49 112,74 175,74 32,0 74,-3 128,-7 54,-5 109,-24 165,-57 56,-34 110,-87 161,-157 52,-72 91,-175 118,-309l0 -865c-27,-134 -66,-237 -118,-309 -51,-70 -105,-123 -161,-157 -56,-33 -111,-52 -165,-57 -54,-4 -96,-7 -128,-7zm3633 -497c0,-99 34,-182 101,-249 67,-68 150,-101 249,-101 -18,-36 -49,-68 -94,-94 -45,-27 -112,-41 -202,-41 -175,0 -316,47 -424,142 -107,94 -189,206 -245,336 -56,130 -95,262 -115,397 -20,134 -30,244 -30,330l0 1493c0,49 17,99 50,148 34,49 82,81 145,94 36,9 54,29 54,61l0 13c0,45 -23,68 -67,68l-1137 0c-45,0 -68,-23 -68,-68l0 -13c0,-32 18,-52 54,-61 63,-13 110,-45 141,-94 32,-49 47,-99 47,-148l0 -2590c0,-49 -15,-99 -47,-148 -31,-50 -78,-81 -141,-94 -36,-9 -54,-30 -54,-61l0 -13c0,-45 23,-68 68,-68l955 0 0 283c-5,4 10,-8 44,-37 33,-29 83,-62 148,-98 65,-36 142,-69 232,-101 89,-31 188,-47 296,-47 139,0 255,20 350,61 94,40 170,94 228,161 59,68 100,144 125,229 25,85 37,171 37,256 0,98 -34,190 -101,276 -67,85 -150,127 -249,127 -99,0 -182,-33 -249,-100 -67,-68 -101,-151 -101,-249zm2483 1419c98,0 181,36 249,108 67,72 101,159 101,262 0,103 -16,203 -47,300 -32,96 -79,182 -142,259 -63,76 -142,136 -239,181 -96,45 -207,68 -333,68 -201,0 -366,-36 -494,-108 -128,-72 -230,-172 -306,-299 -76,-128 -129,-279 -158,-451 -30,-173 -44,-358 -44,-555l0 -1696 -357 0 0 -249 357 0 0 -639c0,-49 -17,-99 -51,-148 -33,-49 -81,-81 -144,-94 -32,-9 -47,-31 -47,-67l0 -14c0,-45 22,-67 67,-67l1137 0c45,0 67,22 67,67l0 14c0,36 -18,58 -54,67 -62,13 -111,45 -144,94 -34,49 -51,99 -51,148l0 639 633 0 0 249 -633 0 0 2012c0,238 31,423 91,555 61,132 163,198 306,198 77,0 142,-14 195,-43 54,-29 99,-64 135,-105 -18,5 -34,8 -47,11 -14,2 -29,3 -47,3 -94,0 -176,-34 -246,-101 -69,-67 -104,-150 -104,-249 0,-99 35,-182 104,-249 70,-67 152,-101 246,-101zm1769 1178c-170,0 -331,-30 -481,-88 -150,-58 -280,-140 -390,-243 -110,-103 -197,-223 -262,-361 -65,-137 -98,-285 -98,-442 0,-157 33,-306 98,-445 65,-140 152,-261 262,-365 110,-103 240,-185 390,-243 150,-58 311,-87 481,-87 198,0 388,44 572,133l0 -532c-9,-94 -34,-181 -74,-261 -36,-67 -89,-129 -158,-185 -70,-56 -169,-84 -299,-84 -126,0 -227,16 -303,47 -76,32 -130,68 -162,108 72,22 129,64 172,124 43,61 64,129 64,206 0,94 -34,176 -101,245 -67,70 -150,104 -249,104 -99,0 -182,-34 -249,-104 -67,-69 -101,-151 -101,-245 0,-5 3,-41 10,-108 7,-67 41,-140 101,-219 61,-78 159,-150 296,-215 137,-65 338,-98 602,-98 135,0 274,14 417,41 144,27 276,78 397,154 121,77 221,181 300,313 78,133 118,306 118,522l0 1944c0,49 15,99 47,148 31,49 78,81 141,94 36,9 54,29 54,61l0 13c0,45 -23,68 -68,68l-955 0 0 -134c-184,89 -374,134 -572,134zm0 -2100c-63,0 -121,26 -175,78 -54,51 -101,120 -141,207 -40,88 -73,190 -98,305 -24,117 -37,241 -37,376 0,135 13,259 37,376 25,115 58,217 98,305 40,87 87,154 141,204 54,49 112,74 175,74 32,0 74,-3 128,-7 54,-5 109,-24 165,-57 56,-34 110,-87 161,-157 52,-72 91,-175 118,-309l0 -865c-27,-134 -66,-237 -118,-309 -51,-70 -105,-123 -161,-157 -56,-33 -111,-52 -165,-57 -54,-4 -96,-7 -128,-7zm4582 2100c-170,0 -331,-44 -481,-132 -150,-87 -280,-206 -390,-356 -110,-150 -198,-328 -263,-532 -65,-204 -97,-422 -97,-656 0,-233 32,-452 97,-656 65,-204 153,-382 263,-535 110,-152 240,-272 390,-359 150,-88 311,-132 481,-132 157,0 307,38 451,115l0 -1137c0,-50 -17,-100 -51,-152 -33,-51 -82,-82 -144,-91 -32,-8 -47,-31 -47,-67l0 -13c0,-45 22,-68 67,-68l1130 0c45,0 67,23 67,68l0 13c0,36 -15,59 -47,67 -62,9 -111,40 -144,91 -34,52 -51,102 -51,152l0 3996c0,49 17,99 51,148 33,49 82,81 144,94 32,9 47,29 47,61l0 13c0,45 -22,68 -67,68l-955 0 0 -115c-144,76 -294,115 -451,115zm81 -3109c-63,0 -126,38 -189,115 -62,76 -120,179 -171,309 -52,130 -93,282 -125,454 -31,173 -47,358 -47,555 0,198 16,383 47,555 32,173 73,324 125,455 51,130 109,232 171,306 63,74 126,111 189,111 76,0 146,-33 208,-98 63,-65 117,-156 162,-272l0 -2147c-45,-103 -98,-186 -158,-249 -61,-62 -132,-94 -212,-94zm2947 3109c-211,0 -402,-44 -572,-132 -171,-87 -317,-206 -438,-356 -121,-150 -214,-328 -279,-532 -65,-204 -97,-422 -97,-656 0,-233 31,-452 94,-656 63,-204 150,-382 262,-535 112,-152 248,-272 407,-359 159,-88 338,-132 535,-132 206,0 380,41 522,121 141,81 257,183 349,307 92,123 163,259 212,407 50,148 86,290 108,427 22,137 34,258 34,363 0,106 -5,176 -14,212l-1722 0c18,350 97,627 239,831 141,204 330,306 568,306 108,0 196,-13 266,-40 69,-27 124,-59 165,-94 49,-41 85,-88 107,-142 0,0 -20,-1 -60,-3 -40,-2 -84,-14 -131,-34 -47,-20 -90,-55 -128,-104 -38,-49 -57,-119 -57,-209 0,-98 34,-181 104,-249 69,-67 151,-100 245,-100 77,0 154,28 233,84 78,56 117,149 117,279 0,107 -21,220 -64,336 -42,117 -108,225 -198,323 -90,99 -202,180 -336,242 -135,63 -292,95 -471,95zm-88 -3109c-72,0 -138,35 -198,105 -61,69 -114,164 -158,286 -45,121 -82,262 -111,423 -30,162 -46,337 -51,525l949 0c0,-152 -7,-307 -20,-464 -14,-157 -36,-301 -68,-431 -31,-130 -75,-236 -131,-319 -56,-83 -127,-125 -212,-125zm-24473 3113c0,44 -2,87 -7,127 -4,40 -6,78 -6,114l0 4487c232,0 444,-62 636,-187 192,-125 355,-291 489,-496 134,-205 237,-440 308,-703 71,-264 107,-538 107,-824 0,-268 -27,-534 -80,-797 -54,-263 -141,-507 -261,-730 -121,-223 -277,-422 -469,-596 -192,-174 -431,-306 -717,-395zm-13 10622c455,-27 861,-143 1219,-348 151,-90 301,-201 448,-335 148,-134 277,-302 389,-503 111,-200 203,-435 274,-703 72,-268 107,-576 107,-924 0,-357 -35,-668 -107,-931 -71,-263 -163,-491 -274,-683 -112,-192 -241,-353 -389,-482 -147,-130 -297,-235 -448,-315 -358,-188 -764,-281 -1219,-281l0 5505zm7648 -147c-420,0 -799,-87 -1138,-262 -340,-174 -630,-410 -871,-709 -241,-300 -427,-652 -556,-1059 -129,-406 -194,-841 -194,-1306 0,-464 62,-899 187,-1306 125,-406 299,-761 523,-1065 223,-303 493,-542 810,-716 317,-174 672,-261 1065,-261 411,0 757,80 1038,241 281,160 514,364 697,609 183,246 323,516 422,811 98,294 169,578 214,850 45,272 67,514 67,723 0,210 -9,351 -27,422l-3429 0c36,697 194,1248 476,1655 281,406 658,609 1131,609 215,0 391,-27 529,-80 139,-54 248,-116 329,-188 98,-80 169,-174 214,-281 0,0 -40,-2 -121,-7 -80,-4 -167,-27 -261,-67 -93,-40 -178,-109 -254,-207 -76,-99 -114,-237 -114,-416 0,-196 69,-361 207,-495 139,-134 302,-201 489,-201 152,0 306,56 463,167 156,112 234,297 234,556 0,214 -42,438 -127,670 -85,232 -217,446 -395,643 -179,196 -402,357 -670,482 -268,125 -581,188 -938,188zm-174 -6189c-143,0 -275,69 -395,208 -121,138 -226,328 -315,569 -89,241 -163,522 -221,844 -58,321 -91,670 -100,1045l1888 0c0,-304 -13,-612 -40,-925 -27,-312 -71,-598 -134,-857 -62,-259 -149,-471 -261,-636 -112,-165 -252,-248 -422,-248zm3027 6189c-89,0 -134,-45 -134,-134l0 -27c0,-63 36,-103 107,-121 126,-26 221,-89 289,-187 66,-98 100,-197 100,-295l0 -7956c0,-99 -34,-199 -100,-302 -68,-103 -163,-163 -289,-181 -71,-18 -107,-62 -107,-134l0 -26c0,-90 45,-134 134,-134l2264 0c89,0 134,44 134,134l0 26c0,72 -31,116 -94,134 -125,18 -221,78 -288,181 -67,103 -100,203 -100,302l0 2263c277,-152 576,-227 897,-227 340,0 657,87 951,261 295,174 554,413 777,716 223,304 398,659 523,1065 125,407 187,842 187,1306 0,465 -62,900 -187,1306 -125,407 -300,759 -523,1059 -223,299 -482,535 -777,709 -294,175 -611,262 -951,262 -321,0 -620,-76 -897,-228l0 228 -1554 0 -362 0zm2652 -6189c-151,0 -290,67 -415,201 -125,134 -232,317 -321,549l0 4273c80,206 183,369 308,489 125,121 268,181 428,181 126,0 251,-74 376,-221 125,-147 236,-351 334,-609 99,-259 179,-561 242,-905 62,-343 93,-712 93,-1105 0,-393 -31,-761 -93,-1105 -63,-344 -143,-645 -242,-904 -98,-259 -209,-464 -334,-616 -125,-152 -250,-228 -376,-228zm4300 -1045c-214,0 -397,-76 -549,-227 -152,-152 -228,-335 -228,-550 0,-214 76,-397 228,-549 152,-152 335,-228 549,-228 215,0 398,76 549,228 152,152 228,335 228,549 0,215 -76,398 -228,550 -151,151 -334,227 -549,227zm1166 844c-125,18 -221,78 -288,181 -67,103 -101,203 -101,301l0 5131c0,98 34,198 101,301 67,103 163,163 288,181 71,18 107,62 107,134l0 27c0,89 -45,134 -134,134l-2264 0c-89,0 -134,-45 -134,-134l0 -27c0,-72 36,-116 107,-134 125,-18 219,-78 282,-181 62,-103 93,-203 93,-301l0 -5131c0,-98 -31,-198 -93,-301 -63,-103 -157,-163 -282,-181 -71,-18 -107,-62 -107,-134l0 -27c0,-89 45,-133 134,-133l2264 0c89,0 134,44 134,133l0 27c0,72 -36,116 -107,134zm2906 6390c-339,0 -658,-87 -957,-262 -300,-174 -559,-410 -777,-709 -219,-300 -393,-652 -523,-1059 -129,-406 -194,-841 -194,-1306 0,-464 65,-899 194,-1306 130,-406 304,-761 523,-1065 218,-303 477,-542 777,-716 299,-174 618,-261 957,-261 313,0 612,75 898,227l0 -2263c0,-99 -34,-199 -101,-302 -67,-103 -163,-163 -288,-181 -62,-18 -93,-62 -93,-134l0 -26c0,-90 44,-134 134,-134l2250 0c89,0 134,44 134,134l0 26c0,72 -31,116 -94,134 -125,18 -221,78 -288,181 -67,103 -100,203 -100,302l0 7956c0,98 33,197 100,295 67,98 163,161 288,187 63,18 94,58 94,121l0 27c0,89 -45,134 -134,134l-1902 0 0 -228c-286,152 -585,228 -898,228zm161 -6189c-125,0 -250,76 -375,228 -125,152 -239,357 -342,616 -102,259 -185,560 -247,904 -63,344 -94,712 -94,1105 0,393 31,762 94,1105 62,344 145,646 247,905 103,258 217,462 342,609 125,147 250,221 375,221 152,0 290,-65 415,-194 125,-130 232,-310 322,-543l0 -4273c-90,-205 -194,-370 -315,-495 -121,-125 -261,-188 -422,-188zm5720 6189c-340,0 -659,-58 -958,-175 -299,-116 -558,-279 -777,-484 -219,-205 -393,-444 -522,-719 -130,-272 -195,-567 -195,-879 0,-313 65,-610 195,-887 129,-279 303,-520 522,-725 219,-206 478,-369 777,-485 299,-116 618,-174 958,-174 393,0 772,89 1138,266l0 -1058c-17,-188 -67,-362 -147,-521 -71,-133 -176,-256 -315,-368 -138,-112 -337,-167 -596,-167 -250,0 -451,31 -603,93 -151,63 -259,134 -321,215 143,44 257,127 341,247 85,121 128,257 128,409 0,188 -67,351 -201,489 -134,138 -299,208 -496,208 -196,0 -362,-70 -495,-208 -134,-138 -201,-301 -201,-489 0,-9 6,-80 20,-214 13,-134 80,-279 201,-436 120,-156 317,-299 589,-428 272,-130 672,-194 1199,-194 268,0 545,26 830,80 286,53 550,156 791,308 241,152 439,359 596,623 156,263 234,609 234,1038l0 3871c0,98 31,197 94,295 62,98 156,161 281,187 72,18 107,58 107,121l0 27c0,89 -44,134 -134,134l-1902 0 0 -266c-366,176 -745,266 -1138,266zm0 -4180c-125,0 -241,52 -349,154 -107,103 -200,239 -281,413 -80,175 -145,378 -194,608 -49,232 -74,480 -74,748 0,267 25,515 74,747 49,230 114,434 194,608 81,174 174,308 281,406 108,98 224,147 349,147 62,0 147,-4 254,-13 107,-9 217,-47 328,-114 112,-67 219,-172 322,-312 103,-143 181,-349 234,-614l0 -1724c-53,-266 -131,-471 -234,-614 -103,-140 -210,-245 -322,-312 -111,-67 -221,-105 -328,-114 -107,-9 -192,-14 -254,-14zm4889 -1058c0,241 80,429 241,563 161,134 359,248 596,341 237,94 493,183 770,268 277,85 534,199 770,342 237,143 436,335 597,576 160,241 241,562 241,964 0,322 -67,616 -201,884 -134,268 -311,498 -529,690 -219,192 -474,342 -764,449 -290,107 -591,161 -904,161 -580,0 -1036,-99 -1366,-295 -331,-196 -565,-426 -703,-690 -139,-263 -195,-527 -168,-790 27,-264 103,-458 228,-583 152,-178 335,-268 549,-268 196,0 362,67 496,201 134,134 200,299 200,496 0,196 -66,361 -200,495 -134,134 -300,201 -496,201 -98,0 -201,-22 -308,-67 89,183 232,346 429,487 196,141 486,210 870,210 241,0 451,-34 630,-101 178,-67 328,-151 448,-254 121,-103 213,-214 275,-339 63,-125 94,-250 94,-375 0,-224 -78,-400 -235,-527 -156,-130 -350,-242 -582,-335 -232,-94 -482,-188 -750,-281 -268,-94 -518,-217 -750,-367 -233,-152 -427,-348 -583,-589 -157,-241 -235,-560 -235,-962 0,-277 52,-532 154,-768 103,-237 250,-442 443,-616 192,-172 428,-311 709,-413 282,-103 596,-154 945,-154 643,0 1114,158 1413,475 299,317 449,708 449,1172 0,188 -67,351 -201,489 -134,138 -299,208 -496,208 -196,0 -361,-70 -495,-208 -134,-138 -201,-301 -201,-489 0,-196 67,-364 201,-502 134,-139 299,-208 495,-208 36,0 89,9 161,27 -98,-152 -228,-268 -389,-348 -160,-81 -375,-121 -643,-121 -392,0 -692,94 -897,281 -205,188 -308,411 -308,670z"/>
  <path fill="#620000" fill-rule="nonzero" d="M2872 14808c366,0 676,73 931,221 254,147 451,332 589,556 138,223 221,464 248,723 27,259 -5,500 -94,723 -89,224 -237,409 -442,556 -205,148 -469,221 -790,221 44,-44 91,-158 140,-341 49,-183 63,-373 41,-570 -23,-196 -101,-372 -235,-529 -134,-156 -357,-234 -670,-234 -303,0 -558,87 -763,261 -206,174 -353,389 -442,643 -90,255 -125,534 -107,837 17,304 96,583 234,837 138,255 337,469 596,643 259,175 585,262 978,262 402,0 748,-101 1038,-302 290,-201 529,-442 717,-723 187,-281 326,-567 415,-857 89,-291 134,-530 134,-717l0 -10381c0,-45 0,-94 0,-147 0,-54 4,-108 13,-161 -419,80 -830,225 -1232,435 -402,210 -764,482 -1085,817 -322,335 -581,732 -777,1192 -196,460 -295,976 -295,1547 0,322 32,610 94,864 63,255 143,480 241,677 98,196 212,364 342,502 129,139 261,257 395,355 312,232 670,384 1071,456 0,160 -78,299 -234,415 -156,116 -355,190 -596,221 -241,31 -498,4 -770,-80 -273,-85 -529,-242 -770,-469 -241,-228 -440,-543 -596,-945 -157,-401 -235,-910 -235,-1527 0,-750 132,-1411 395,-1982 264,-572 608,-1058 1032,-1460 424,-402 906,-717 1446,-945 541,-227 1088,-377 1641,-448 72,-331 194,-677 369,-1038 174,-362 401,-692 683,-992 281,-299 616,-544 1004,-736 389,-192 833,-288 1333,-288 491,0 895,87 1212,261 317,174 559,391 724,649 165,260 254,541 268,844 13,304 -38,585 -154,844 -116,259 -293,476 -529,650 -237,174 -521,261 -851,261 -456,0 -784,-98 -985,-294 -201,-197 -321,-414 -361,-650 -40,-237 -20,-453 60,-650 80,-196 183,-294 308,-294 0,133 18,250 54,348 35,89 96,167 181,234 84,67 216,101 395,101 160,0 301,-52 422,-154 120,-103 214,-228 281,-376 67,-147 100,-310 100,-488 0,-179 -40,-342 -120,-489 -81,-148 -206,-273 -375,-375 -170,-103 -389,-154 -657,-154 -321,0 -591,96 -810,288 -219,192 -400,428 -543,710 -142,281 -252,582 -328,904 -76,321 -127,616 -154,884 474,62 898,178 1273,348 375,170 690,382 944,636 255,255 449,547 583,878 134,330 201,687 201,1071 0,563 -112,1041 -335,1433 -223,393 -572,693 -1045,898 331,54 659,141 985,261 326,121 618,295 877,523 259,227 467,522 623,884 156,361 234,810 234,1346 0,571 -73,1054 -221,1447 -147,392 -344,716 -589,971 -246,254 -525,451 -837,589 -313,138 -634,241 -965,308 -330,67 -656,105 -978,114 -321,9 -611,13 -870,13 -72,322 -199,637 -382,945 -183,308 -418,580 -703,817 -286,236 -628,426 -1025,569 -397,143 -851,214 -1360,214 -678,0 -1239,-134 -1681,-401 -442,-268 -772,-603 -991,-1005 -219,-402 -330,-835 -335,-1299 -4,-465 87,-898 275,-1300 187,-402 466,-736 837,-1004 371,-268 824,-402 1360,-402zm4085 -8412c0,44 -2,87 -7,127 -4,40 -6,78 -6,114l0 4487c232,0 444,-62 636,-187 192,-125 355,-290 489,-496 134,-205 237,-440 308,-703 71,-264 107,-538 107,-824 0,-268 -27,-533 -80,-797 -54,-263 -141,-507 -261,-730 -121,-223 -277,-422 -469,-596 -192,-174 -431,-306 -717,-395zm-13 10622c455,-27 861,-143 1219,-348 151,-90 301,-201 448,-335 148,-134 277,-302 389,-502 111,-201 203,-436 274,-704 72,-268 108,-576 108,-924 0,-357 -36,-667 -108,-931 -71,-263 -163,-491 -274,-683 -112,-192 -241,-353 -389,-482 -147,-130 -297,-235 -448,-315 -358,-188 -764,-281 -1219,-281l0 5505zm7648 -147c-420,0 -799,-87 -1138,-262 -340,-174 -630,-410 -871,-709 -241,-300 -426,-652 -556,-1059 -129,-406 -194,-841 -194,-1306 0,-464 62,-899 187,-1306 125,-406 300,-761 523,-1065 223,-303 493,-542 810,-716 317,-174 672,-261 1065,-261 411,0 757,80 1038,241 281,160 514,364 697,609 183,246 323,516 422,811 98,294 169,578 214,850 45,273 67,514 67,723 0,210 -9,351 -27,422l-3429 0c36,697 194,1248 476,1655 281,406 658,609 1131,609 215,0 391,-27 530,-80 138,-54 247,-116 328,-188 98,-80 169,-174 214,-281 0,0 -40,-2 -121,-7 -80,-4 -167,-27 -261,-67 -93,-40 -178,-109 -254,-207 -76,-99 -114,-237 -114,-416 0,-196 69,-361 208,-495 138,-134 301,-201 488,-201 152,0 306,56 463,167 156,112 234,297 234,556 0,215 -42,438 -127,670 -85,232 -217,446 -395,643 -179,196 -402,357 -670,482 -268,125 -581,188 -938,188zm-174 -6189c-143,0 -275,69 -395,208 -121,138 -226,328 -315,569 -89,241 -163,522 -221,844 -58,321 -91,670 -100,1045l1888 0c0,-304 -13,-612 -40,-925 -27,-312 -71,-598 -134,-857 -62,-259 -149,-471 -261,-636 -112,-165 -252,-248 -422,-248zm3027 6189c-89,0 -134,-45 -134,-134l0 -27c0,-63 36,-103 108,-121 125,-26 221,-89 288,-187 67,-98 100,-197 100,-295l0 -7956c0,-99 -33,-199 -100,-302 -67,-103 -163,-163 -288,-181 -72,-18 -108,-62 -108,-134l0 -26c0,-90 45,-134 134,-134l2264 0c89,0 134,44 134,134l0 26c0,72 -31,116 -94,134 -125,18 -221,78 -288,181 -67,103 -100,203 -100,302l0 2263c277,-152 576,-227 897,-227 340,0 657,87 951,261 295,174 554,413 777,716 224,304 398,659 523,1065 125,407 187,842 187,1306 0,465 -62,900 -187,1306 -125,407 -299,759 -523,1059 -223,299 -482,535 -777,709 -294,175 -611,262 -951,262 -321,0 -620,-76 -897,-228l0 228 -1554 0 -362 0zm2653 -6189c-152,0 -291,67 -416,201 -125,134 -232,317 -321,549l0 4273c80,206 183,369 308,489 125,121 268,181 429,181 125,0 250,-74 375,-221 125,-147 236,-350 334,-609 99,-259 179,-561 242,-905 62,-343 93,-712 93,-1105 0,-393 -31,-761 -93,-1105 -63,-344 -143,-645 -242,-904 -98,-259 -209,-464 -334,-616 -125,-152 -250,-228 -375,-228zm4299 -1045c-214,0 -397,-76 -549,-227 -152,-152 -228,-335 -228,-550 0,-214 76,-397 228,-549 152,-152 335,-227 549,-227 215,0 398,75 549,227 152,152 228,335 228,549 0,215 -76,398 -228,550 -151,151 -334,227 -549,227zm1166 844c-125,18 -221,78 -288,181 -67,103 -101,203 -101,301l0 5131c0,98 34,198 101,301 67,103 163,163 288,181 71,18 107,62 107,134l0 27c0,89 -45,134 -134,134l-2264 0c-89,0 -134,-45 -134,-134l0 -27c0,-72 36,-116 107,-134 125,-18 219,-78 282,-181 62,-103 93,-203 93,-301l0 -5131c0,-98 -31,-198 -93,-301 -63,-103 -157,-163 -282,-181 -71,-18 -107,-62 -107,-134l0 -27c0,-89 45,-133 134,-133l2264 0c89,0 134,44 134,133l0 27c0,72 -36,116 -107,134zm2906 6390c-339,0 -658,-87 -957,-262 -300,-174 -558,-410 -777,-709 -219,-300 -393,-652 -523,-1059 -129,-406 -194,-841 -194,-1306 0,-464 65,-899 194,-1306 130,-406 304,-761 523,-1065 219,-303 477,-542 777,-716 299,-174 618,-261 957,-261 313,0 612,75 898,227l0 -2263c0,-99 -34,-199 -101,-302 -67,-103 -163,-163 -288,-181 -62,-18 -93,-62 -93,-134l0 -26c0,-90 44,-134 134,-134l2250 0c89,0 134,44 134,134l0 26c0,72 -31,116 -94,134 -125,18 -221,78 -288,181 -67,103 -100,203 -100,302l0 7956c0,98 33,197 100,295 67,98 163,161 288,187 63,18 94,58 94,121l0 27c0,89 -45,134 -134,134l-1902 0 0 -228c-286,152 -585,228 -898,228zm161 -6189c-125,0 -250,76 -375,228 -125,152 -239,357 -342,616 -102,259 -185,560 -247,904 -63,344 -94,712 -94,1105 0,393 31,762 94,1105 62,344 145,646 247,905 103,259 217,462 342,609 125,147 250,221 375,221 152,0 290,-65 415,-194 125,-130 233,-310 322,-543l0 -4273c-89,-205 -194,-370 -315,-495 -120,-125 -261,-188 -422,-188zm5720 6189c-340,0 -659,-58 -958,-174 -299,-117 -558,-280 -777,-485 -219,-205 -393,-444 -522,-719 -130,-272 -194,-567 -194,-879 0,-313 64,-610 194,-887 129,-279 303,-520 522,-725 219,-206 478,-369 777,-485 299,-116 618,-174 958,-174 393,0 772,89 1138,266l0 -1058c-17,-188 -67,-362 -147,-521 -71,-133 -176,-256 -315,-368 -138,-112 -337,-167 -596,-167 -250,0 -451,31 -603,93 -151,63 -259,134 -321,215 143,44 257,127 342,248 84,120 127,256 127,408 0,188 -67,351 -201,489 -134,138 -299,208 -496,208 -196,0 -362,-70 -495,-208 -134,-138 -201,-301 -201,-489 0,-9 6,-80 20,-214 13,-134 80,-279 201,-436 120,-156 317,-299 589,-428 272,-130 672,-194 1199,-194 268,0 545,26 830,80 286,53 550,156 791,308 241,152 440,359 596,623 156,263 234,609 234,1038l0 3871c0,98 31,197 94,295 62,98 156,161 281,187 72,18 107,58 107,121l0 27c0,89 -44,134 -134,134l-1902 0 0 -266c-366,176 -745,266 -1138,266zm0 -4180c-125,0 -241,52 -348,154 -108,103 -201,239 -282,413 -80,175 -145,378 -194,608 -49,232 -74,480 -74,748 0,267 25,515 74,747 49,230 114,434 194,608 81,174 174,308 282,406 107,98 223,147 348,147 62,0 147,-4 254,-13 107,-9 217,-47 328,-114 112,-67 219,-172 322,-312 103,-143 181,-349 234,-614l0 -1724c-53,-266 -131,-471 -234,-614 -103,-140 -210,-245 -322,-312 -111,-67 -221,-105 -328,-114 -107,-9 -192,-14 -254,-14zm4889 -1058c0,241 80,429 241,563 161,134 360,248 596,341 237,94 494,183 770,268 277,85 534,199 771,342 236,143 435,335 596,576 160,241 241,562 241,964 0,322 -67,616 -201,884 -134,268 -310,498 -529,690 -219,192 -474,342 -764,449 -290,107 -591,161 -904,161 -580,0 -1036,-99 -1366,-295 -331,-196 -565,-426 -703,-690 -139,-263 -195,-527 -168,-790 27,-264 103,-458 228,-583 152,-178 335,-268 549,-268 196,0 362,67 496,201 134,134 201,299 201,496 0,196 -67,361 -201,495 -134,134 -300,201 -496,201 -98,0 -201,-22 -308,-67 89,183 232,346 429,487 196,141 486,210 870,210 241,0 451,-34 630,-101 178,-67 328,-151 448,-254 121,-103 213,-214 275,-339 63,-125 94,-250 94,-375 0,-224 -78,-400 -235,-527 -156,-130 -350,-241 -582,-335 -232,-94 -482,-188 -750,-281 -268,-94 -518,-217 -750,-367 -233,-151 -427,-348 -583,-589 -156,-241 -235,-560 -235,-962 0,-277 52,-532 155,-768 102,-237 250,-442 442,-616 192,-172 428,-311 709,-413 282,-103 596,-154 945,-154 643,0 1114,158 1413,475 299,317 449,708 449,1172 0,188 -67,351 -201,489 -134,139 -299,208 -496,208 -196,0 -361,-69 -495,-208 -134,-138 -201,-301 -201,-489 0,-196 67,-364 201,-502 134,-139 299,-208 495,-208 36,0 90,9 161,27 -98,-152 -228,-268 -389,-348 -160,-81 -375,-121 -643,-121 -392,0 -692,94 -897,281 -205,188 -308,411 -308,670z"/>
  <path fill="#620000" fill-rule="nonzero" d="M16608 8074c-556,0 -1049,-68 -1480,-202 -430,-135 -805,-314 -1123,-540 -319,-224 -587,-483 -804,-777 -218,-293 -393,-601 -525,-919 -132,-319 -228,-638 -286,-960 -58,-321 -87,-620 -87,-898 0,-616 85,-1157 255,-1626 171,-470 401,-864 690,-1182 289,-320 628,-561 1016,-724 388,-164 802,-246 1241,-246 314,0 578,67 791,202 213,136 375,303 487,503 113,200 174,418 185,654 12,236 -28,454 -117,654 -90,201 -229,368 -417,503 -189,135 -427,202 -714,202 -206,0 -376,-27 -511,-81 -134,-53 -241,-124 -319,-212 -79,-87 -134,-185 -165,-292 -32,-108 -47,-215 -47,-323 0,-180 35,-323 107,-431 72,-107 149,-186 232,-235 83,-50 161,-75 232,-78 72,-2 108,13 108,44 -54,49 -90,122 -108,219 -17,96 -14,192 11,286 24,94 72,176 144,245 72,70 175,105 310,105 161,0 293,-44 397,-132 103,-87 177,-195 222,-322 45,-128 60,-269 47,-421 -14,-153 -55,-293 -125,-421 -69,-127 -169,-235 -299,-323 -130,-87 -287,-131 -471,-131 -350,0 -665,108 -945,323 -281,216 -516,499 -707,851 -190,352 -334,753 -430,1201 -97,449 -136,909 -118,1380 18,470 95,930 232,1379 137,448 343,849 619,1201 276,352 623,636 1043,851 419,215 918,323 1497,323 80,0 148,-6 202,-17 53,-11 96,-24 127,-37 36,-18 65,-36 88,-54 27,0 44,24 50,71 7,47 -5,100 -37,158 -31,58 -87,111 -168,158 -81,47 -190,71 -330,71zm-585 -1682c-170,0 -331,-29 -481,-88 -150,-58 -280,-140 -390,-243 -110,-103 -197,-223 -262,-361 -66,-137 -98,-285 -98,-442 0,-157 32,-306 98,-445 65,-140 152,-261 262,-365 110,-103 240,-185 390,-243 150,-58 311,-87 481,-87 197,0 388,44 572,133l0 -531c-9,-95 -34,-182 -74,-262 -36,-67 -89,-129 -158,-185 -70,-56 -169,-84 -300,-84 -125,0 -226,16 -302,47 -76,32 -130,68 -162,108 72,22 129,64 172,124 42,61 64,129 64,206 0,94 -34,176 -101,245 -67,70 -150,104 -249,104 -99,0 -182,-34 -249,-104 -67,-69 -101,-151 -101,-245 0,-5 3,-41 10,-108 7,-67 40,-140 101,-219 61,-78 159,-150 296,-215 137,-65 338,-98 602,-98 135,0 274,14 417,41 144,27 276,78 397,154 121,77 221,181 300,313 78,133 117,306 117,522l0 1944c0,50 16,99 48,148 31,50 78,81 141,94 36,9 54,29 54,61l0 13c0,45 -23,68 -68,68l-955 0 0 -134c-184,89 -375,134 -572,134zm0 -2100c-63,0 -121,26 -175,78 -54,51 -101,120 -141,207 -40,88 -73,190 -98,305 -24,117 -37,241 -37,376 0,135 13,259 37,376 25,115 58,217 98,305 40,87 87,154 141,204 54,49 112,74 175,74 32,0 74,-3 128,-7 54,-4 109,-24 165,-57 56,-34 110,-87 161,-157 52,-72 91,-175 118,-309l0 -865c-27,-134 -66,-237 -118,-309 -51,-70 -105,-123 -161,-157 -56,-33 -111,-52 -165,-57 -54,-4 -96,-7 -128,-7zm3633 -497c0,-99 34,-182 101,-249 67,-68 150,-101 249,-101 -18,-36 -49,-68 -94,-94 -45,-27 -112,-41 -202,-41 -175,0 -316,47 -424,142 -107,94 -189,206 -245,336 -56,130 -95,262 -115,397 -20,134 -30,244 -30,330l0 1493c0,50 17,99 50,148 34,50 82,81 145,94 36,9 54,29 54,61l0 13c0,45 -23,68 -67,68l-1137 0c-45,0 -68,-23 -68,-68l0 -13c0,-32 18,-52 54,-61 63,-13 110,-44 141,-94 32,-49 48,-98 48,-148l0 -2590c0,-49 -16,-99 -48,-148 -31,-50 -78,-81 -141,-94 -36,-9 -54,-29 -54,-61l0 -13c0,-45 23,-68 68,-68l955 0 0 283c-5,4 10,-8 44,-37 33,-29 83,-62 148,-98 65,-35 142,-69 232,-100 90,-32 188,-48 296,-48 139,0 256,21 350,61 94,40 170,94 228,161 59,68 100,144 125,229 25,85 37,171 37,256 0,99 -34,190 -101,276 -67,85 -150,128 -249,128 -99,0 -182,-34 -249,-101 -67,-68 -101,-151 -101,-249zm2483 1419c99,0 182,36 249,108 67,72 101,159 101,262 0,103 -16,203 -47,300 -32,96 -79,182 -142,259 -62,76 -142,136 -239,181 -96,45 -207,68 -333,68 -201,0 -366,-36 -494,-108 -128,-72 -230,-172 -306,-299 -76,-128 -129,-279 -158,-451 -29,-173 -44,-358 -44,-555l0 -1696 -357 0 0 -249 357 0 0 -639c0,-49 -17,-98 -51,-148 -33,-49 -81,-81 -144,-94 -32,-9 -47,-31 -47,-67l0 -14c0,-45 22,-67 67,-67l1137 0c45,0 67,22 67,67l0 14c0,36 -18,58 -54,67 -62,13 -110,45 -144,94 -34,50 -51,99 -51,148l0 639 633 0 0 249 -633 0 0 2012c0,238 31,423 91,555 61,132 163,198 306,198 77,0 142,-14 195,-43 54,-29 99,-64 135,-105 -18,5 -34,8 -47,11 -14,2 -29,3 -47,3 -94,0 -176,-34 -246,-101 -69,-67 -104,-150 -104,-249 0,-99 35,-182 104,-249 70,-67 152,-101 246,-101zm1769 1178c-170,0 -331,-29 -481,-88 -150,-58 -280,-140 -390,-243 -110,-103 -197,-223 -262,-361 -65,-137 -98,-285 -98,-442 0,-157 33,-306 98,-445 65,-140 152,-261 262,-365 110,-103 240,-185 390,-243 150,-58 311,-87 481,-87 198,0 388,44 572,133l0 -531c-9,-95 -33,-182 -74,-262 -36,-67 -88,-129 -158,-185 -69,-56 -169,-84 -299,-84 -126,0 -227,16 -303,47 -76,32 -130,68 -162,108 72,22 129,64 172,124 43,61 64,129 64,206 0,94 -34,176 -101,245 -67,70 -150,104 -249,104 -99,0 -182,-34 -249,-104 -67,-69 -101,-151 -101,-245 0,-5 4,-41 10,-108 7,-67 41,-140 101,-219 61,-78 159,-150 296,-215 137,-65 338,-98 602,-98 135,0 274,14 418,41 143,27 275,78 396,154 122,77 221,181 300,313 78,133 118,306 118,522l0 1944c0,50 15,99 47,148 31,50 78,81 141,94 36,9 54,29 54,61l0 13c0,45 -23,68 -68,68l-955 0 0 -134c-184,89 -374,134 -572,134zm0 -2100c-63,0 -121,26 -175,78 -54,51 -101,120 -141,207 -40,88 -73,190 -98,305 -24,117 -37,241 -37,376 0,135 13,259 37,376 25,115 58,217 98,305 40,87 87,154 141,204 54,49 112,74 175,74 32,0 74,-3 128,-7 54,-4 109,-24 165,-57 56,-34 110,-87 161,-157 52,-72 91,-175 118,-309l0 -865c-27,-134 -66,-237 -118,-309 -51,-70 -105,-123 -161,-157 -56,-33 -111,-52 -165,-57 -54,-4 -96,-7 -128,-7zm4582 2100c-170,0 -331,-44 -481,-132 -150,-87 -280,-206 -390,-356 -110,-150 -198,-328 -263,-532 -65,-204 -97,-422 -97,-656 0,-233 32,-451 97,-656 65,-204 153,-382 263,-535 110,-152 240,-272 390,-359 150,-88 311,-132 481,-132 157,0 307,38 451,115l0 -1137c0,-50 -17,-100 -51,-152 -33,-51 -81,-81 -144,-91 -32,-8 -47,-31 -47,-67l0 -13c0,-45 22,-68 67,-68l1130 0c45,0 68,23 68,68l0 13c0,36 -16,59 -48,67 -62,10 -111,40 -144,91 -34,52 -51,102 -51,152l0 3996c0,50 17,99 51,148 33,50 82,81 144,94 32,9 48,29 48,61l0 13c0,45 -23,68 -68,68l-955 0 0 -115c-144,76 -294,115 -451,115zm81 -3109c-63,0 -126,38 -189,115 -62,76 -120,179 -171,309 -52,130 -93,282 -125,454 -31,173 -47,358 -47,555 0,198 16,383 47,555 32,173 73,324 125,455 51,130 109,232 171,306 63,74 126,111 189,111 76,0 146,-33 208,-98 63,-65 117,-156 162,-272l0 -2147c-45,-103 -98,-186 -158,-249 -61,-62 -132,-94 -212,-94zm2947 3109c-211,0 -402,-44 -572,-132 -171,-87 -316,-206 -438,-356 -121,-150 -214,-328 -279,-532 -65,-204 -97,-422 -97,-656 0,-233 31,-451 94,-656 63,-204 150,-382 262,-535 112,-152 248,-272 407,-359 160,-88 338,-132 535,-132 207,0 380,41 522,121 141,81 258,183 349,307 92,123 163,259 212,407 50,148 86,290 108,427 22,137 34,258 34,363 0,106 -5,176 -14,212l-1722 0c18,350 97,627 239,831 141,204 331,306 568,306 108,0 196,-13 266,-40 70,-27 124,-59 165,-94 49,-41 85,-88 107,-142 0,0 -20,-1 -60,-3 -40,-2 -84,-14 -131,-34 -47,-20 -90,-55 -128,-104 -38,-49 -57,-119 -57,-209 0,-98 34,-181 104,-249 70,-67 151,-100 246,-100 76,0 153,28 232,84 78,56 117,149 117,279 0,107 -21,220 -64,336 -42,117 -108,225 -198,323 -90,99 -202,180 -336,242 -135,63 -292,95 -471,95zm-88 -3109c-72,0 -138,35 -198,105 -61,69 -114,164 -158,286 -45,121 -82,262 -111,423 -30,162 -46,337 -51,525l949 0c0,-152 -7,-307 -20,-464 -14,-157 -36,-301 -68,-431 -31,-130 -75,-236 -131,-319 -56,-83 -127,-125 -212,-125z"/>
  <g id="_1549374008160">
   <path fill="black" fill-rule="nonzero" d="M9553 21327c-126,0 -244,-32 -356,-97 -111,-64 -207,-152 -288,-263 -81,-111 -146,-242 -194,-393 -48,-151 -72,-313 -72,-485 0,-172 24,-334 72,-485 48,-150 113,-282 194,-395 81,-113 177,-201 288,-266 112,-64 230,-97 356,-97 116,0 227,28 333,85l0 -841c0,-36 -12,-73 -37,-111 -25,-38 -61,-61 -107,-67 -23,-7 -35,-24 -35,-50l0 -10c0,-33 17,-50 50,-50l835 0c33,0 50,17 50,50l0 10c0,26 -12,43 -35,50 -47,6 -82,29 -107,67 -25,38 -37,75 -37,111l0 2954c0,36 12,73 37,109 25,37 60,60 107,70 23,6 35,21 35,44l0 10c0,34 -17,50 -50,50l-706 0 0 -84c-106,56 -217,84 -333,84zm60 -2297c-47,0 -93,28 -140,85 -46,56 -88,132 -126,228 -38,97 -69,208 -92,336 -24,128 -35,264 -35,410 0,146 11,283 35,410 23,128 54,240 92,336 38,96 80,171 126,226 47,55 93,82 140,82 56,0 107,-24 154,-72 46,-48 86,-115 119,-201l0 -1586c-33,-77 -72,-138 -117,-184 -45,-47 -97,-70 -156,-70zm2177 2297c-156,0 -296,-32 -422,-97 -126,-64 -234,-152 -323,-263 -90,-111 -159,-242 -207,-393 -48,-151 -72,-313 -72,-485 0,-172 23,-334 70,-485 46,-150 111,-282 194,-395 82,-113 183,-201 300,-266 118,-64 250,-97 396,-97 152,0 281,30 385,90 104,59 190,135 258,226 68,91 121,191 157,301 37,109 63,214 80,315 16,101 25,191 25,269 0,78 -4,130 -10,157l-1273 0c13,258 72,463 176,613 105,151 245,227 420,227 80,0 145,-10 197,-30 51,-20 92,-43 122,-70 36,-30 63,-64 79,-104 0,0 -15,-1 -45,-3 -29,-1 -62,-10 -97,-24 -34,-15 -66,-41 -94,-78 -28,-36 -42,-87 -42,-154 0,-73 25,-134 77,-184 51,-49 112,-74 181,-74 57,0 114,20 172,62 58,41 87,110 87,206 0,80 -16,163 -47,249 -32,86 -81,166 -147,238 -66,73 -149,133 -249,180 -99,46 -215,69 -348,69zm-64 -2297c-53,0 -102,26 -147,77 -45,52 -84,122 -117,212 -33,89 -60,193 -82,313 -21,119 -34,248 -37,388l701 0c0,-113 -5,-227 -15,-344 -10,-116 -27,-222 -50,-318 -23,-96 -55,-175 -97,-236 -41,-61 -93,-92 -156,-92zm2232 2297c-33,0 -50,-16 -50,-50l0 -10c0,-23 13,-38 40,-44 46,-10 82,-33 107,-70 25,-36 37,-73 37,-109l0 -2954c0,-36 -12,-73 -37,-111 -25,-38 -61,-61 -107,-67 -27,-7 -40,-24 -40,-50l0 -10c0,-33 17,-50 50,-50l840 0c33,0 50,17 50,50l0 10c0,26 -12,43 -35,50 -46,6 -82,29 -107,67 -25,38 -37,75 -37,111l0 841c103,-57 214,-85 333,-85 126,0 244,33 353,97 109,65 205,153 288,266 83,113 148,245 194,395 47,151 70,313 70,485 0,172 -23,334 -70,485 -46,151 -111,282 -194,393 -83,111 -179,199 -288,263 -109,65 -227,97 -353,97 -119,0 -230,-28 -333,-84l0 84 -577 0 -134 0zm984 -2297c-56,0 -107,25 -154,75 -46,49 -86,117 -119,204l0 1586c30,76 68,136 114,181 47,45 100,67 159,67 47,0 93,-27 140,-82 46,-55 87,-130 124,-226 36,-96 66,-208 89,-336 23,-127 35,-264 35,-410 0,-146 -12,-282 -35,-410 -23,-128 -53,-239 -89,-336 -37,-96 -78,-172 -124,-228 -47,-57 -93,-85 -140,-85zm2093 2297c-126,0 -244,-21 -355,-65 -111,-43 -207,-103 -288,-179 -82,-77 -146,-165 -194,-267 -48,-101 -72,-211 -72,-327 0,-116 24,-226 72,-329 48,-103 112,-193 194,-269 81,-76 177,-137 288,-180 111,-43 229,-64 355,-64 146,0 287,33 423,98l0 -392c-7,-70 -25,-135 -55,-194 -26,-49 -65,-95 -117,-136 -51,-42 -125,-62 -221,-62 -93,0 -167,11 -224,34 -56,24 -96,50 -119,80 53,17 95,47 127,92 31,45 47,95 47,152 0,69 -25,130 -74,181 -50,51 -111,77 -184,77 -73,0 -135,-26 -184,-77 -50,-51 -75,-112 -75,-181 0,-4 3,-30 8,-80 5,-50 29,-104 74,-162 45,-58 118,-111 219,-159 101,-48 249,-72 445,-72 99,0 202,10 308,30 106,20 204,58 293,114 90,57 164,134 222,232 58,97 87,226 87,385l0 1437c0,36 11,73 34,109 24,37 59,60 105,70 26,6 40,21 40,44l0 10c0,34 -17,50 -50,50l-706 0 0 -99c-136,66 -277,99 -423,99zm0 -1551c-46,0 -89,19 -129,57 -40,38 -74,89 -104,153 -30,65 -54,140 -72,226 -19,86 -28,178 -28,277 0,100 9,192 28,278 18,85 42,161 72,225 30,65 64,115 104,151 40,37 83,55 129,55 24,0 55,-2 95,-5 40,-3 80,-18 122,-42 41,-25 81,-64 119,-116 38,-53 67,-130 87,-228l0 -640c-20,-99 -49,-175 -87,-228 -38,-52 -78,-91 -119,-116 -42,-25 -82,-39 -122,-42 -40,-3 -71,-5 -95,-5zm2685 -368c0,-73 25,-134 75,-184 49,-50 111,-75 184,-75 -14,-26 -37,-49 -70,-69 -33,-20 -83,-30 -149,-30 -129,0 -234,35 -313,104 -80,70 -140,153 -182,249 -41,96 -69,194 -84,293 -15,100 -23,181 -23,244l0 1104c0,36 13,73 38,109 24,37 60,60 107,70 26,6 39,21 39,44l0 10c0,34 -16,50 -49,50l-841 0c-33,0 -49,-16 -49,-50l0 -10c0,-23 13,-38 39,-44 47,-10 82,-33 105,-70 23,-36 35,-73 35,-109l0 -1914c0,-37 -12,-73 -35,-110 -23,-36 -58,-59 -105,-69 -26,-7 -39,-22 -39,-45l0 -10c0,-33 16,-50 49,-50l706 0 0 209c-3,3 8,-6 33,-27 24,-22 61,-46 109,-72 48,-27 105,-52 171,-75 67,-23 140,-35 219,-35 103,0 189,15 259,45 69,30 126,70 169,119 43,50 74,106 92,169 18,63 27,126 27,189 0,73 -25,141 -74,204 -50,63 -111,95 -184,95 -73,0 -135,-25 -184,-75 -50,-50 -75,-111 -75,-184zm1874 0c0,-73 25,-134 75,-184 50,-50 111,-75 184,-75 -13,-26 -37,-49 -70,-69 -33,-20 -82,-30 -149,-30 -129,0 -233,35 -313,104 -80,70 -140,153 -181,249 -42,96 -70,194 -85,293 -15,100 -22,181 -22,244l0 1104c0,36 12,73 37,109 25,37 60,60 107,70 26,6 40,21 40,44l0 10c0,34 -17,50 -50,50l-840 0c-34,0 -50,-16 -50,-50l0 -10c0,-23 13,-38 40,-44 46,-10 81,-33 104,-70 23,-36 35,-73 35,-109l0 -1914c0,-37 -12,-73 -35,-110 -23,-36 -58,-59 -104,-69 -27,-7 -40,-22 -40,-45l0 -10c0,-33 16,-50 50,-50l706 0 0 209c-4,3 7,-6 32,-27 25,-22 61,-46 109,-72 48,-27 106,-52 172,-75 66,-23 139,-35 219,-35 102,0 189,15 258,45 70,30 126,70 169,119 43,50 74,106 92,169 18,63 28,126 28,189 0,73 -25,141 -75,204 -50,63 -111,95 -184,95 -73,0 -134,-25 -184,-75 -50,-50 -75,-111 -75,-184zm995 -766c-80,0 -148,-28 -204,-84 -56,-57 -85,-124 -85,-204 0,-80 29,-147 85,-204 56,-56 124,-84 204,-84 79,0 147,28 204,84 56,57 84,124 84,204 0,80 -28,147 -84,204 -57,56 -125,84 -204,84zm432 314c-46,6 -82,29 -107,67 -24,38 -37,75 -37,112l0 1904c0,36 13,73 37,112 25,38 61,60 107,67 27,6 40,23 40,49l0 10c0,34 -17,50 -50,50l-840 0c-33,0 -50,-16 -50,-50l0 -10c0,-26 14,-43 40,-49 47,-7 81,-29 105,-67 23,-39 34,-76 34,-112l0 -1904c0,-37 -11,-74 -34,-112 -24,-38 -58,-61 -105,-67 -26,-7 -40,-24 -40,-50l0 -10c0,-33 17,-50 50,-50l840 0c33,0 50,17 50,50l0 10c0,26 -13,43 -40,50zm1052 -115c126,0 244,33 354,97 110,65 206,154 289,266 83,113 148,245 195,395 46,151 69,313 69,485 0,172 -23,334 -69,485 -47,151 -112,282 -195,395 -83,113 -179,202 -289,266 -110,65 -228,97 -354,97 -126,0 -245,-32 -356,-97 -112,-64 -208,-153 -290,-266 -81,-113 -146,-244 -194,-395 -48,-151 -72,-313 -72,-485 0,-172 24,-334 72,-485 48,-150 113,-282 194,-395 82,-112 178,-201 290,-266 111,-64 230,-97 356,-97zm-3 2302c47,0 90,-27 130,-82 39,-55 74,-131 104,-228 30,-96 54,-209 72,-337 18,-128 28,-265 28,-412 0,-147 -10,-284 -28,-412 -18,-128 -42,-241 -72,-337 -30,-97 -65,-172 -104,-228 -40,-54 -83,-82 -130,-82 -46,0 -89,28 -129,82 -40,56 -74,131 -104,228 -30,96 -54,209 -72,337 -19,128 -28,265 -28,412 0,147 9,284 28,412 18,128 42,241 72,337 30,97 64,173 104,228 40,55 83,82 129,82zm3232 184c-146,0 -282,-32 -408,-97 -126,-64 -237,-152 -333,-263 -96,-111 -171,-242 -226,-393 -55,-151 -82,-313 -82,-485 0,-172 28,-334 84,-485 57,-150 133,-282 229,-395 96,-113 211,-201 343,-266 133,-64 275,-97 428,-97 225,0 395,55 509,164 115,110 172,242 172,398 0,73 -25,139 -75,199 -49,60 -111,89 -184,89 -73,0 -134,-24 -184,-74 -49,-50 -74,-111 -74,-184 0,-63 20,-118 59,-164 40,-47 90,-76 150,-90 0,-3 -4,-14 -10,-32 -7,-18 -19,-36 -38,-52 -18,-17 -45,-33 -82,-47 -36,-15 -84,-23 -144,-23 -73,0 -145,20 -216,60 -71,40 -136,102 -194,186 -58,85 -105,194 -142,328 -36,135 -54,296 -54,485 0,139 17,263 52,371 35,107 81,199 139,275 58,77 127,135 206,174 80,40 164,60 254,60 86,0 160,-20 221,-60 61,-39 112,-84 152,-134 43,-56 79,-121 109,-194l115 0c0,57 -15,127 -45,212 -30,84 -77,166 -142,246 -65,79 -146,147 -243,204 -98,56 -213,84 -346,84zm1748 -2486c125,0 244,33 353,97 111,65 207,154 290,266 82,113 148,245 194,395 47,151 70,313 70,485 0,172 -23,334 -70,485 -46,151 -112,282 -194,395 -83,113 -179,202 -290,266 -109,65 -228,97 -353,97 -126,0 -246,-32 -357,-97 -112,-64 -208,-153 -289,-266 -81,-113 -147,-244 -195,-395 -48,-151 -72,-313 -72,-485 0,-172 24,-334 72,-485 48,-150 114,-282 195,-395 81,-112 177,-201 289,-266 111,-64 231,-97 357,-97zm-3 2302c46,0 90,-27 129,-82 40,-55 75,-131 105,-228 30,-96 54,-209 72,-337 18,-128 27,-265 27,-412 0,-147 -9,-284 -27,-412 -18,-128 -42,-241 -72,-337 -30,-97 -65,-172 -105,-228 -39,-54 -83,-82 -129,-82 -46,0 -89,28 -129,82 -40,56 -75,131 -105,228 -29,96 -53,209 -72,337 -18,128 -27,265 -27,412 0,147 9,284 27,412 19,128 43,241 72,337 30,97 65,173 105,228 40,55 83,82 129,82zm2173 75c46,-10 81,-33 104,-70 23,-36 35,-73 35,-109l0 -1477c0,-119 -19,-219 -57,-301 -38,-81 -104,-121 -197,-121 -66,0 -121,14 -164,42 -43,28 -78,63 -104,104 -27,42 -46,87 -57,137 -12,50 -18,96 -18,139l0 1477c0,36 13,73 38,109 24,37 60,60 107,70 26,6 39,23 39,49l0 10c0,34 -16,50 -49,50l-841 0c-33,0 -49,-16 -49,-50l0 -10c0,-26 13,-43 39,-49 47,-10 82,-33 105,-70 23,-36 35,-73 35,-109l0 -1909c0,-37 -12,-73 -35,-110 -23,-36 -58,-59 -105,-69 -26,-7 -39,-24 -39,-50l0 -10c0,-33 16,-50 49,-50l706 0 0 294c50,-73 117,-140 202,-202 84,-61 193,-92 325,-92 143,0 256,23 341,70 84,46 149,105 194,176 45,72 74,149 89,234 15,85 23,165 23,241l0 1477c0,36 12,73 37,109 25,37 60,60 107,70 26,6 40,23 40,49l0 10c0,34 -17,50 -50,50l-840 0c-33,0 -50,-16 -50,-50l0 -10c0,-26 13,-43 40,-49zm3256 109c-146,0 -282,-32 -408,-97 -126,-64 -236,-152 -333,-263 -96,-111 -171,-242 -226,-393 -55,-151 -82,-313 -82,-485 0,-172 28,-334 85,-485 56,-150 132,-282 228,-395 96,-113 211,-201 343,-266 133,-64 275,-97 428,-97 225,0 395,55 509,164 115,110 172,242 172,398 0,73 -25,139 -75,199 -49,60 -111,89 -183,89 -73,0 -135,-24 -184,-74 -50,-50 -75,-111 -75,-184 0,-63 20,-118 60,-164 39,-47 89,-76 149,-90 0,-3 -3,-14 -10,-32 -7,-18 -19,-36 -37,-52 -19,-17 -46,-33 -82,-47 -37,-15 -85,-23 -145,-23 -73,0 -145,20 -216,60 -71,40 -136,102 -194,186 -58,85 -105,194 -141,328 -37,135 -55,296 -55,485 0,139 17,263 52,371 35,107 81,199 139,275 58,77 127,135 207,174 79,40 164,60 253,60 86,0 160,-20 221,-60 62,-39 112,-84 152,-134 43,-56 80,-121 109,-194l115 0c0,57 -15,127 -45,212 -30,84 -77,166 -142,246 -64,79 -146,147 -243,204 -98,56 -213,84 -346,84zm1740 -3420c-46,10 -82,33 -107,69 -24,37 -37,73 -37,110l0 2953c0,36 13,73 37,112 25,38 61,60 107,67 23,6 35,23 35,49l0 10c0,34 -17,50 -50,50l-835 0c-33,0 -50,-16 -50,-50l0 -10c0,-26 12,-43 35,-49 47,-7 82,-29 107,-67 25,-39 37,-76 37,-112l0 -2953c0,-37 -12,-73 -37,-110 -25,-36 -60,-59 -107,-69 -23,-7 -35,-22 -35,-45l0 -10c0,-33 17,-50 50,-50l835 0c33,0 50,17 50,50l0 10c0,23 -12,38 -35,45zm1024 3420c-126,0 -244,-21 -355,-65 -111,-43 -207,-103 -288,-179 -82,-77 -146,-165 -194,-267 -48,-101 -72,-211 -72,-327 0,-116 24,-226 72,-329 48,-103 112,-193 194,-269 81,-76 177,-137 288,-180 111,-43 229,-64 355,-64 146,0 287,33 423,98l0 -392c-7,-70 -25,-135 -55,-194 -26,-49 -65,-95 -117,-136 -51,-42 -125,-62 -221,-62 -93,0 -167,11 -223,34 -57,24 -97,50 -120,80 53,17 95,47 127,92 31,45 47,95 47,152 0,69 -25,130 -74,181 -50,51 -111,77 -184,77 -73,0 -135,-26 -184,-77 -50,-51 -75,-112 -75,-181 0,-4 3,-30 8,-80 5,-50 29,-104 74,-162 45,-58 118,-111 219,-159 101,-48 249,-72 445,-72 99,0 202,10 308,30 106,20 204,58 293,114 90,57 164,134 222,232 58,97 87,226 87,385l0 1437c0,36 11,73 35,109 23,37 58,60 104,70 26,6 40,21 40,44l0 10c0,34 -17,50 -50,50l-706 0 0 -99c-136,66 -277,99 -423,99zm0 -1551c-46,0 -89,19 -129,57 -40,38 -74,89 -104,153 -30,65 -54,140 -72,226 -19,86 -28,178 -28,277 0,100 9,192 28,278 18,85 42,161 72,225 30,65 64,115 104,151 40,37 83,55 129,55 24,0 55,-2 95,-5 40,-3 80,-18 122,-42 41,-25 81,-64 119,-116 38,-53 67,-130 87,-228l0 -640c-20,-99 -49,-175 -87,-228 -38,-52 -78,-91 -119,-116 -42,-25 -82,-39 -122,-42 -40,-3 -71,-5 -95,-5z"/>
   <path fill="black" fill-rule="nonzero" d="M39055 19383c0,90 30,159 90,209 59,50 133,92 221,127 88,35 183,68 286,99 102,32 198,74 286,127 87,53 161,124 221,214 59,89 89,209 89,358 0,119 -25,228 -74,328 -50,99 -115,185 -197,256 -81,71 -175,127 -283,166 -108,40 -220,60 -336,60 -215,0 -384,-36 -507,-109 -122,-73 -209,-159 -261,-256 -51,-98 -72,-196 -62,-294 10,-97 38,-170 85,-216 56,-66 124,-99 203,-99 73,0 135,24 184,74 50,50 75,111 75,184 0,73 -25,134 -75,184 -49,50 -111,75 -184,75 -36,0 -74,-9 -114,-25 33,68 86,128 159,180 73,53 181,78 323,78 90,0 168,-12 234,-37 66,-25 122,-56 167,-94 44,-38 78,-80 101,-126 24,-47 35,-93 35,-140 0,-82 -29,-148 -87,-195 -58,-48 -130,-90 -216,-124 -86,-35 -179,-70 -278,-105 -100,-35 -193,-80 -279,-136 -86,-56 -158,-129 -216,-218 -58,-90 -87,-208 -87,-358 0,-102 19,-197 57,-285 38,-87 93,-164 164,-228 71,-64 159,-115 264,-154 104,-38 221,-57 350,-57 239,0 414,59 525,177 111,117 166,262 166,435 0,69 -25,130 -74,181 -50,52 -111,77 -184,77 -73,0 -135,-25 -184,-77 -50,-51 -75,-112 -75,-181 0,-73 25,-135 75,-187 49,-51 111,-77 184,-77 13,0 33,4 59,10 -36,-56 -84,-99 -144,-129 -60,-30 -139,-45 -238,-45 -146,0 -257,35 -334,105 -76,69 -114,152 -114,248zm2377 1944c-156,0 -297,-32 -423,-97 -126,-64 -234,-152 -323,-263 -90,-111 -158,-242 -206,-393 -49,-151 -73,-313 -73,-485 0,-172 24,-334 70,-485 46,-150 111,-282 194,-395 83,-113 183,-201 301,-266 117,-64 249,-97 395,-97 152,0 281,30 385,90 105,59 191,135 259,226 68,91 120,191 156,301 37,109 63,214 80,315 17,101 25,191 25,269 0,78 -3,130 -10,157l-1273 0c13,258 72,463 177,613 104,151 244,227 420,227 79,0 145,-10 196,-30 51,-20 92,-43 122,-70 36,-30 63,-64 79,-104 0,0 -14,-1 -44,-3 -30,-1 -62,-10 -97,-24 -35,-15 -67,-41 -95,-78 -28,-36 -42,-87 -42,-154 0,-73 26,-134 77,-184 51,-49 112,-74 182,-74 56,0 113,20 171,62 58,41 87,110 87,206 0,80 -16,163 -47,249 -32,86 -81,166 -147,238 -66,73 -149,133 -248,180 -100,46 -216,69 -348,69zm-65 -2297c-53,0 -102,26 -147,77 -44,52 -83,122 -117,212 -33,89 -60,193 -82,313 -21,119 -34,248 -37,388l701 0c0,-113 -5,-227 -15,-344 -10,-116 -26,-222 -49,-318 -24,-96 -56,-175 -97,-236 -42,-61 -94,-92 -157,-92z"/>
  </g>
 </g>
</svg>
