<?xml version="1.0" encoding="UTF-8"?>
<!DOCTYPE svg PUBLIC "-//W3C//DTD SVG 1.1//EN" "http://www.w3.org/Graphics/SVG/1.1/DTD/svg11.dtd">
<!-- Creator: CorelDRAW -->
<svg xmlns="http://www.w3.org/2000/svg" xml:space="preserve" width="92px" height="92px" version="1.1" shape-rendering="geometricPrecision" text-rendering="geometricPrecision" image-rendering="optimizeQuality" fill-rule="evenodd" clip-rule="evenodd"
viewBox="0 0 354 354"
 xmlns:xlink="http://www.w3.org/1999/xlink"
 xmlns:xodm="http://www.corel.com/coreldraw/odm/2003">
 <defs>
     <linearGradient id="id0" gradientUnits="userSpaceOnUse" x1="477" y1="192" x2="122" y2="98">
      <stop offset="0" stop-opacity="1" stop-color="#532F17"/>
      <stop offset="0.258824" stop-opacity="1" stop-color="#774D27"/>
      <stop offset="0.4" stop-opacity="1" stop-color="#F3B471"/>
      <stop offset="0.54902" stop-opacity="1" stop-color="#FEFE9E"/>
      <stop offset="0.631373" stop-opacity="1" stop-color="#FEFEFE"/>
      <stop offset="0.701961" stop-opacity="1" stop-color="#FEFCA5"/>
      <stop offset="0.768627" stop-opacity="1" stop-color="#DEA86C"/>
      <stop offset="1" stop-opacity="1" stop-color="#69411D"/>
     </linearGradient>
     <linearGradient id="id1" gradientUnits="userSpaceOnUse" x1="248" y1="-21" x2="337" y2="314">
      <stop offset="0" stop-opacity="1" stop-color="#532F17"/>
      <stop offset="0.258824" stop-opacity="1" stop-color="#774D27"/>
      <stop offset="0.4" stop-opacity="1" stop-color="#F3B471"/>
      <stop offset="0.54902" stop-opacity="1" stop-color="#FEFE9E"/>
      <stop offset="0.631373" stop-opacity="1" stop-color="#FEFEFE"/>
      <stop offset="0.701961" stop-opacity="1" stop-color="#FEFCA5"/>
      <stop offset="0.768627" stop-opacity="1" stop-color="#DEA86C"/>
      <stop offset="1" stop-opacity="1" stop-color="#69411D"/>
     </linearGradient>
     <linearGradient id="id2" gradientUnits="userSpaceOnUse" x1="416" y1="253" x2="159" y2="43">
      <stop offset="0" stop-opacity="1" stop-color="#532F17"/>
      <stop offset="0.258824" stop-opacity="1" stop-color="#774D27"/>
      <stop offset="0.4" stop-opacity="1" stop-color="#F3B471"/>
      <stop offset="0.54902" stop-opacity="1" stop-color="#FEFE9E"/>
      <stop offset="0.631373" stop-opacity="1" stop-color="#FEFEFE"/>
      <stop offset="0.701961" stop-opacity="1" stop-color="#FEFCA5"/>
      <stop offset="0.768627" stop-opacity="1" stop-color="#DEA86C"/>
      <stop offset="1" stop-opacity="1" stop-color="#69411D"/>
     </linearGradient>
     <linearGradient id="id3" gradientUnits="userSpaceOnUse" x1="198" y1="-13" x2="348" y2="265">
      <stop offset="0" stop-opacity="1" stop-color="#532F17"/>
      <stop offset="0.258824" stop-opacity="1" stop-color="#774D27"/>
      <stop offset="0.4" stop-opacity="1" stop-color="#F3B471"/>
      <stop offset="0.54902" stop-opacity="1" stop-color="#FEFE9E"/>
      <stop offset="0.631373" stop-opacity="1" stop-color="#FEFEFE"/>
      <stop offset="0.701961" stop-opacity="1" stop-color="#FEFCA5"/>
      <stop offset="0.768627" stop-opacity="1" stop-color="#DEA86C"/>
      <stop offset="1" stop-opacity="1" stop-color="#69411D"/>
     </linearGradient>
     <linearGradient id="id4" gradientUnits="userSpaceOnUse" x1="98" y1="11" x2="362" y2="163">
      <stop offset="0" stop-opacity="1" stop-color="#532F17"/>
      <stop offset="0.258824" stop-opacity="1" stop-color="#774D27"/>
      <stop offset="0.4" stop-opacity="1" stop-color="#F3B471"/>
      <stop offset="0.54902" stop-opacity="1" stop-color="#FEFE9E"/>
      <stop offset="0.631373" stop-opacity="1" stop-color="#FEFEFE"/>
      <stop offset="0.701961" stop-opacity="1" stop-color="#FEFCA5"/>
      <stop offset="0.768627" stop-opacity="1" stop-color="#DEA86C"/>
      <stop offset="1" stop-opacity="1" stop-color="#69411D"/>
     </linearGradient>
 </defs>
 <g id="Capa_x0020_1">
  <metadata id="CorelCorpID_0Corel-Layer"/>
  <g id="_1750357409136">
   <g>
    <path fill="url(#id0)" d="M348 131c-25,-94 -122,-150 -217,-125 -94,25 -150,122 -125,217 25,94 122,150 217,125 94,-25 150,-122 125,-217z"/>
    <path fill="url(#id1)" d="M338 134c-24,-89 -115,-142 -204,-118 -89,24 -142,115 -118,204 24,89 115,142 204,118 89,-24 142,-115 118,-204z"/>
    <path fill="url(#id2)" d="M332 136c-23,-86 -111,-136 -196,-113 -86,22 -136,110 -113,195 22,86 110,136 195,114 86,-23 136,-111 114,-196z"/>
    <path fill="url(#id3)" d="M311 105c-40,-74 -132,-102 -206,-62 -74,40 -102,132 -62,206 40,74 132,102 206,62 74,-40 102,-132 62,-206z"/>
    <path fill="url(#id4)" d="M250 50c-70,-40 -159,-16 -200,54 -40,70 -16,160 54,200 70,40 160,16 200,-54 40,-70 16,-159 -54,-200z"/>
   </g>
   <path fill="black" fill-opacity="0.231373" d="M292 220l-46 0 46 -6 0 6zm-128 -145c0,0 0,0 0,0 1,0 1,0 1,-1 0,-2 0,-4 1,-6 2,-8 18,-16 21,-17 2,3 13,17 11,25 -1,2 -2,3 -3,5 0,0 0,1 1,1 0,0 1,0 1,0 1,-2 2,-4 2,-5 3,-10 -10,-27 -11,-28 0,0 -1,-1 -1,0 -1,0 -21,9 -23,19 -1,2 -1,4 -1,6 0,1 1,1 1,1zm-5 -1c0,0 0,0 0,0 1,-1 1,-1 1,-2 0,-2 0,-5 1,-8 2,-10 24,-21 28,-23 3,4 17,23 14,34 0,2 -1,4 -2,6 -1,1 -1,2 0,2 0,0 1,0 2,0 1,-2 2,-5 3,-8 3,-12 -15,-36 -15,-37 -1,0 -1,0 -2,0 -1,1 -27,13 -31,26 0,2 -1,5 0,8l-3 -2 -23 37 26 -34c0,0 0,0 1,1zm118 111c0,0 0,0 0,0 0,-1 0,-1 1,-1 2,0 4,-1 6,-1 7,-3 13,-20 15,-24 -4,-2 -19,-10 -27,-7 -2,1 -3,1 -5,3 0,0 -1,0 -1,-1 0,0 0,0 0,-1 2,-1 3,-2 5,-3 10,-3 28,8 29,8 0,0 1,1 1,1 -1,1 -7,22 -17,25 -2,1 -4,2 -6,2 -1,0 -1,-1 -1,-1zm-42 -24c0,0 0,0 0,0 -1,-1 0,-2 0,-3 4,-1 8,-4 11,-7 11,-12 8,-49 7,-56 -8,-1 -45,-3 -56,9 -3,3 -5,6 -7,9 0,1 -1,1 -2,1 -1,-1 -1,-2 -1,-3 2,-3 4,-7 7,-10 14,-14 59,-10 61,-10 1,0 1,1 1,2 1,1 6,46 -8,61 -3,3 -7,6 -11,8 -1,0 -2,0 -2,-1zm44 29c0,-1 1,-1 1,-1 3,0 6,-1 8,-2 10,-4 18,-26 20,-31 -4,-3 -25,-14 -36,-10 -2,1 -4,2 -6,4 0,0 -1,0 -1,-1 -1,0 -1,-1 0,-1 2,-2 4,-3 7,-4 12,-5 37,10 38,10 1,1 1,1 1,2 -1,1 -10,29 -22,33 -3,1 -6,2 -9,2l2 2 -36 24 33 -27zm-39 -20c0,0 -1,0 -1,-1 0,-1 0,-2 2,-3 4,-2 9,-5 13,-9 15,-16 10,-63 9,-73 -10,-1 -58,-3 -72,12 -4,4 -7,8 -9,12 0,1 -2,2 -3,1 -1,-1 -1,-2 -1,-3 2,-5 5,-9 9,-13 18,-19 76,-14 78,-13 1,0 2,0 3,2 0,2 7,59 -11,78 -4,5 -9,8 -14,11 -1,0 -2,0 -3,-1zm-156 -19c1,-2 0,-6 -4,-8 -2,-2 -4,-2 -6,-1 -3,1 -5,3 -5,3 0,0 4,-4 8,0 3,4 -2,7 3,9 2,2 3,0 4,-3zm-24 13c7,-11 14,-6 14,-5 0,0 1,-2 -2,-4 -4,-2 -6,-3 -3,-6 2,-2 4,-2 4,-2 0,0 -4,-2 -8,2 0,0 -6,6 -7,11 0,0 -1,1 -1,0 0,-1 0,-2 0,-3 -1,-1 0,-4 0,-4 -1,1 -1,1 -2,3 -1,2 -4,20 9,29 0,0 -10,-9 -4,-21zm-2 55c1,6 14,6 15,-8 1,-9 -3,-17 -8,-20 -4,-3 -6,2 -6,2 0,0 6,1 9,5 7,8 4,14 4,14 1,-5 -5,-10 -8,-8 -4,1 -2,5 -2,5 0,-2 3,-3 5,0 3,2 1,5 1,5 1,-1 0,-3 -1,-3 -1,0 -1,2 -1,3 0,2 1,4 -2,6 -4,3 -6,-1 -6,-1zm10 -52c0,0 5,-4 4,-6 -1,-2 -6,-2 -10,8 -3,8 2,14 2,14 0,0 -4,-9 4,-16zm27 5c0,0 0,-2 -1,-3 -1,-2 1,-3 3,-2 1,0 2,0 2,-1 1,0 2,-1 2,-1 -1,0 -2,0 -3,-1 -2,0 -4,-2 -8,-3 -7,-3 -15,2 -15,2 14,-4 20,9 20,9zm-23 48c7,-8 4,-20 -1,-29 -3,-5 -5,-10 -4,-15 0,-5 4,-9 8,-11 8,-4 18,4 17,11 0,7 -6,10 -10,9 -1,0 -3,-1 -3,-3 0,0 -3,-1 -1,-3 0,0 -2,0 -2,1 -1,2 -1,1 -1,1 0,0 4,4 7,4 4,1 10,-2 10,-9 1,-7 -7,-15 -16,-12 -3,0 -6,2 -8,6 -7,10 -1,19 4,29 3,5 3,9 3,12 -1,3 -2,6 -4,9 -3,3 -8,5 -11,3 -4,-2 -5,-6 -3,-9 2,-3 7,-2 7,0 2,3 -1,6 -3,5 -1,0 -2,-1 -2,-2 0,-1 1,-2 1,-2 0,0 0,1 0,1 0,1 1,1 1,1 0,-1 0,-1 0,-1 0,-1 -1,-2 -1,-1 -1,0 -1,1 -1,1 0,1 0,3 2,3 2,1 5,-2 4,-5 -1,-3 -6,-4 -9,-1 -2,3 -1,9 3,11 4,2 10,0 13,-4zm-1 12c1,3 3,3 5,3 3,0 3,-2 3,-2 -1,2 -4,1 -4,-2 1,-2 8,0 8,5 1,6 -4,7 -4,7 1,0 1,1 1,1 0,4 -3,4 -3,4 3,1 10,-7 6,-14 -4,-7 -13,-8 -19,-3 -6,4 -4,11 -4,11 -1,-7 7,-7 7,-7 -2,-3 -6,0 -4,-3 3,-2 7,-3 8,0zm2 -48c7,9 14,5 16,4 2,-1 1,1 3,3 2,3 4,2 4,2 -1,-2 -2,-3 0,-10 3,-6 -2,-9 -2,-9 0,0 2,5 -4,11 -8,7 -17,-1 -17,-1zm13 26c0,0 2,-4 0,-6 -3,-4 -5,-1 -7,-2 -2,-1 1,-4 1,-4 -3,0 -4,3 -3,7 1,4 -1,10 -1,10 0,0 4,-10 7,-9 3,1 3,4 3,4zm6 6c0,0 3,-2 2,-4 -2,-3 -4,-1 -6,1 -2,3 -9,10 -15,9 0,0 10,3 19,-6zm-3 18c0,-4 1,-4 2,-4 1,-1 0,-4 0,-4 -2,1 -3,1 -7,-1 -4,-2 -9,-2 -9,-2 10,2 14,11 14,11zm17 -50c2,-3 3,-6 4,-8 0,-3 -2,-5 -3,-6 -1,0 -2,0 -4,0 -2,1 -4,2 -4,7 0,0 2,-4 5,-3 2,1 2,4 0,6 -2,1 -3,-1 -3,-1 0,0 0,4 -1,9 -1,5 -3,10 -3,13 0,0 2,-9 9,-17zm-7 36c0,-1 -4,-8 0,-20 2,-6 7,-12 13,-20 0,0 0,-1 1,-1 1,-2 2,-4 3,-5 4,-6 9,-17 2,-27 -2,-5 -7,-8 -12,-8 -4,0 -8,2 -10,5 -2,2 -2,6 -1,9 1,7 9,8 9,8 0,0 -1,0 -2,-1 0,-1 2,-1 2,-1 2,-1 5,-3 5,-7 -1,-4 -5,-5 -5,-5 2,2 2,4 1,5 -1,1 -2,-1 -2,-1 0,1 0,4 -3,5 -2,0 -3,-1 -4,-2 0,0 0,0 -1,-1 -1,-2 -1,-6 1,-9 2,-3 6,-5 10,-4 8,0 15,9 14,18 -1,8 -4,15 -8,20 -5,8 -12,15 -14,22 -3,12 1,19 1,20 0,0 0,0 0,0 0,0 0,0 0,0zm10 -18c0,0 6,-3 5,-5 -1,-3 -6,-1 -11,7 -5,8 -3,17 -1,21 0,0 -3,-15 7,-23zm-1 37c1,-4 6,-4 6,-4 -2,-3 -8,-3 -8,5 0,7 -4,11 -4,11 4,-2 5,-8 6,-12zm-12 -9c0,0 -1,2 1,5 3,2 6,5 5,12 0,0 2,-5 -1,-16 -2,-10 -10,-11 -11,-7 0,0 2,-2 3,-1 1,2 -1,4 -1,4 0,0 5,-3 7,3 0,0 1,1 0,2 -2,0 -3,-2 -3,-2zm-5 17c-2,2 2,7 7,4 4,-3 3,-7 1,-7 -1,0 -2,2 -2,2 0,1 0,4 -3,4 -3,0 -3,-3 -3,-3zm23 -34c-2,5 4,12 12,8 2,-1 5,-3 6,-7 1,-6 -4,-14 -12,-15 -8,0 -16,7 -17,16 -1,9 1,18 1,25 1,8 -6,15 -11,12 -3,-1 -5,-3 -4,-5 0,-2 2,-3 3,-4 1,0 2,1 2,2 1,2 -1,2 -2,1 0,0 0,1 1,2 1,0 1,1 0,1 0,0 2,1 3,-2 0,0 0,-1 0,-2 -1,-1 0,-1 0,-1 0,0 -1,-1 -3,-1 -2,0 -3,1 -4,2 0,0 -1,1 -1,2 0,2 2,5 4,6 6,2 13,-4 13,-11 0,-3 0,-6 0,-11 0,0 -2,-14 3,-22 2,-5 8,-9 14,-8 1,0 2,0 2,0 5,3 8,8 7,13 -1,5 -5,8 -9,8 -1,0 -3,-1 -4,-3 -2,-3 1,-4 1,-4 0,0 -1,0 -1,1 -1,0 -2,0 -2,-2 0,-1 1,-3 4,-3 0,0 -4,-2 -6,2zm96 60c4,4 0,8 0,8 0,0 2,-2 3,-5 0,-2 0,-4 -1,-6 -3,-4 -6,-5 -9,-4 -2,1 -4,3 -3,5 3,4 6,-1 10,2zm-10 22c2,0 1,-1 2,-1 0,0 -3,0 -4,0 -1,0 -2,0 -2,0 -1,-1 -1,-2 0,-2 4,-1 11,-7 11,-7 4,-4 1,-8 1,-8 0,0 0,2 -2,5 -3,2 -4,1 -6,-3 -2,-4 -4,-3 -4,-3 1,1 6,8 -5,14 -11,7 -21,-2 -21,-2 9,12 28,8 30,7zm-36 -8c-3,-5 -12,-9 -20,-8 -14,2 -13,15 -8,16 0,0 -3,-3 -1,-6 2,-3 4,-3 6,-2 2,0 3,-1 3,-2 0,-1 -2,-1 -3,-1 0,0 3,-1 6,1 3,3 1,5 -1,5 0,0 4,2 5,-2 2,-3 -3,-9 -8,-8 0,0 5,-2 15,4 3,2 5,8 5,8 0,0 4,-1 1,-5zm9 1c0,0 6,4 13,1 10,-4 10,-9 8,-10 -2,-1 -6,4 -6,4 -7,8 -15,5 -15,5zm19 -13c0,0 5,-8 1,-15 -1,-3 -3,-5 -3,-7 -1,-1 -1,-2 -1,-3 0,0 -1,1 -1,2 -1,0 -1,1 -1,2 1,2 0,4 -2,3 -1,-1 -3,-1 -3,-1 0,0 13,6 10,19zm-60 18c2,4 7,6 10,3 3,-2 2,-7 -1,-8 -3,-1 -5,2 -5,4 1,1 2,2 3,2 1,0 1,0 1,-1 1,-1 0,-2 -1,-2 0,0 1,1 -1,1 0,0 1,1 1,0 1,0 1,0 1,0 0,1 0,2 -1,2 -1,0 -2,-1 -3,-2 0,-2 2,-5 5,-4 3,1 4,6 1,8 -3,2 -8,1 -10,-3 -2,-3 0,-8 3,-11 3,-3 6,-4 9,-4 3,-1 7,-1 12,2 10,4 19,11 29,3 4,-2 6,-6 6,-8 3,-9 -6,-17 -13,-16 -7,0 -9,6 -9,10 0,4 5,8 5,8 0,0 -1,-1 1,-2 1,0 1,-2 1,-2 -2,2 -3,0 -3,0 -2,0 -3,-2 -3,-4 -1,-3 2,-10 8,-10 7,-1 16,8 12,17 -2,4 -6,8 -11,8 -5,1 -10,-1 -15,-3 -9,-5 -22,-7 -29,0 -4,3 -5,9 -3,12zm-13 -16c0,2 1,4 4,5 3,1 3,6 0,8 -3,2 1,-2 -3,-4 0,0 0,8 -7,8 0,0 7,1 12,-5 4,-6 3,-15 -5,-19 -7,-4 -14,3 -13,7 0,0 0,-3 4,-4 0,0 0,0 1,1 0,0 1,-5 6,-4 5,1 8,7 6,8 -3,0 -4,-3 -2,-4 0,0 -3,0 -3,3zm61 -20c0,0 -3,-5 -9,-2 -7,3 -8,2 -10,1 0,0 -1,2 2,4 3,1 4,1 3,3 -1,2 -4,9 5,15 0,0 -9,-8 -1,-16 5,-6 10,-5 10,-5zm-31 12c1,3 -9,7 -9,7 0,0 5,-1 10,-1 3,1 7,0 7,-3 0,0 -3,3 -4,1 -2,-2 1,-4 -2,-7 -3,-2 -7,0 -7,0 0,0 4,0 5,3zm-8 -5c3,-2 4,-4 2,-5 -2,-1 -5,2 -5,2 -8,9 -5,19 -5,19 -1,-6 6,-14 8,-16zm-9 13c0,0 0,-4 -2,-8 -3,-4 -3,-5 -2,-7 0,0 -2,-1 -4,0 0,1 0,2 -4,2 0,0 9,4 12,13zm31 -36c-2,10 -18,13 -18,13 11,0 22,-10 27,-17 2,-3 3,-5 3,-6 0,-5 -4,-4 -4,-4 2,3 1,6 0,8 -2,5 -6,7 -3,2 0,-1 1,-3 1,-4 0,-5 -4,-8 -6,-6 0,0 0,0 0,0 -1,2 2,5 0,14zm12 9c0,0 -2,-1 -1,-3 2,-2 4,-2 5,0 2,3 -2,5 -2,5 5,0 6,-2 7,-5 0,-1 0,-2 -1,-3 0,-1 -2,-3 -5,-2 -2,0 -5,1 -8,4 -8,7 -17,9 -17,9 3,0 8,-2 13,-3 5,-1 9,-2 9,-2zm-21 4c7,-3 13,-9 21,-15 6,-4 12,-7 20,-9 9,-1 19,6 19,14 0,4 -1,8 -4,10 -3,2 -7,2 -9,1 -1,0 -1,0 -1,0 -1,-1 -2,-2 -2,-4 1,-4 3,-4 5,-3 0,0 -3,-2 -1,-3 1,-1 2,-1 4,1 0,0 0,-3 -4,-4 -4,-1 -7,2 -7,5 0,0 0,1 -1,1 -1,0 -2,-2 -2,-2 0,0 2,8 10,10 2,1 6,0 8,-2 3,-2 5,-6 5,-10 0,-5 -4,-10 -8,-12 -11,-6 -22,-1 -27,3 -2,1 -4,2 -5,4 -1,0 -1,0 -1,1 -8,5 -14,11 -20,13 -12,5 -19,1 -20,1 0,0 0,0 0,0 0,0 0,0 0,0 1,0 8,4 20,0zm-40 -5c7,0 16,2 24,0 9,-1 17,-9 16,-17 -1,-8 -9,-13 -15,-11 -4,1 -6,4 -7,6 -4,8 4,14 8,11 4,-2 2,-5 2,-5 0,2 -2,3 -3,4 -1,0 -2,-1 -1,-2 0,-1 0,-1 0,-1 0,0 -1,2 -4,1 -2,-1 -2,-3 -3,-5 0,-3 3,-7 8,-9 4,-1 10,2 13,7 0,0 0,1 0,2 2,6 -3,12 -8,15 -7,4 -21,3 -21,3 -5,0 -9,0 -11,1 -7,0 -13,7 -11,12 2,3 4,5 7,4 1,0 1,0 2,-1 1,0 2,-2 2,-3 -1,-3 -2,-4 -2,-4 0,1 0,1 -1,1 -1,0 -1,0 -1,0 -4,1 -3,3 -3,3 0,-1 1,-2 2,0 0,1 1,0 1,0 -1,0 -1,-2 1,-2 1,1 2,2 2,3 0,1 -1,3 -3,3 -3,1 -5,-1 -6,-4 -3,-5 4,-12 12,-12zm12 -14c0,0 -1,-4 1,-4 1,0 -1,4 5,7 0,0 -8,-5 0,-15 0,0 6,-7 15,-2 0,0 10,4 8,15 0,0 4,-7 -1,-15 -1,-2 -2,-3 -2,-4 -2,-4 -2,-4 -2,-4 0,0 -1,0 -1,1 -1,0 -1,1 -1,2 0,3 -3,3 -3,1 0,-2 1,-4 2,-5 1,0 1,0 1,0 0,0 -1,-1 -2,-1 -2,0 -3,0 -5,1 -2,3 1,6 1,6 0,0 -4,-1 -9,2 3,-5 1,-9 1,-9 0,0 3,3 6,0 2,-1 2,-3 1,-4 0,-2 -1,-3 -1,-3 0,1 0,1 0,1 -1,2 -2,3 -4,3 -3,0 -3,-4 0,-3 1,0 2,-1 2,-1 1,-1 1,-2 1,-2 0,0 0,1 -4,-1l0 0c-1,-1 -2,-1 -4,-2 -8,-5 -15,0 -15,0 11,-3 16,7 16,7 4,9 -2,15 -2,15 -10,9 -16,1 -16,1 4,5 8,3 8,5 0,1 -3,1 -3,1 0,0 2,2 7,-1 -2,5 0,8 0,8zm24 14c8,-5 9,-10 7,-11 -2,-1 -5,5 -5,5 -8,10 -23,8 -23,8 4,2 13,3 21,-2zm-36 -2c8,0 8,-6 5,-7 0,0 0,4 -4,5 -4,1 -10,2 -12,7 0,0 3,-5 11,-5zm10 7c6,2 4,7 4,7 0,0 1,-2 3,-1 1,1 0,3 0,3 4,-2 2,-9 -9,-11 -11,-2 -15,0 -15,0 7,-1 10,2 12,4 3,3 5,1 5,1 0,0 -2,-1 -2,-2 1,-2 2,-1 2,-1zm-14 1c0,-2 -4,-4 -7,1 -2,5 2,9 5,7 0,0 -4,-1 -4,-3 0,-3 3,-3 4,-3 0,-1 3,-1 2,-2zm-34 -132c1,2 3,1 3,1 3,-2 0,-5 0,-5 -2,-1 -4,0 -5,2 -2,3 1,9 6,6 5,-2 6,-6 8,-8 2,-2 4,-3 4,-3 0,0 -2,1 -5,2 -2,2 -3,7 -7,9 -4,2 -8,-4 -6,-6 0,0 1,-1 1,-1 1,-1 2,0 2,0 1,-1 2,1 1,1 -1,0 -1,2 -1,2 0,1 -1,0 -1,0zm109 0c-2,-3 -6,-5 -10,-4 -5,1 -8,5 -9,10 -1,4 0,11 10,18 0,0 12,8 24,-3 0,0 3,-4 5,-8 1,-2 2,-3 2,-4 2,-7 2,-13 1,-16 0,-1 0,-2 0,-2 0,1 -1,2 -1,2 -1,1 -3,-3 -5,-2 -3,1 -3,4 -3,4 1,0 4,-2 7,1 2,3 2,7 2,9 -1,1 -1,3 -1,4 -2,5 -7,12 -14,15 -7,3 -17,0 -23,-7 -6,-6 -3,-19 5,-20 3,-1 7,1 9,4 2,3 2,6 1,9 -2,2 -4,3 -6,3 -2,0 -3,-1 -4,-2 -1,-1 -2,-1 -2,-1 2,0 1,2 0,1 -1,-1 0,-3 0,-3 -2,0 -2,-2 -2,-2 -1,4 2,6 2,6 0,1 1,1 1,1 3,1 8,1 11,-3 1,-3 2,-6 0,-10zm8 17c-1,-3 -7,1 -10,2 -4,1 -8,0 -12,-2 0,0 9,8 19,5 0,0 5,-1 3,-5zm-14 -16c2,2 1,5 1,5 2,-1 3,-6 -3,-7 -5,-2 -9,4 -9,4 2,-2 4,-1 6,1 2,1 3,-1 3,-1 -1,0 -1,-3 2,-2zm14 31c-1,-3 -3,-3 -9,-4 -6,0 -10,-4 -10,-4 2,4 0,6 2,8 1,2 0,4 0,4 5,-2 3,-7 3,-7 4,3 1,4 5,7 3,3 6,-1 6,-1 0,0 -2,-1 -1,-3 2,-2 4,0 4,0zm15 -23c0,0 3,-4 10,-4 8,0 12,-11 12,-11 0,0 -2,1 -4,2 -3,0 -4,4 -5,5 -2,2 -3,2 -3,2 4,-2 4,-6 4,-6 -2,2 -3,2 -8,3 -5,1 -6,9 -6,9zm-10 -8c-3,-3 -5,-1 -5,-1 3,0 4,3 6,10 2,7 -5,11 -5,11 0,0 8,-3 10,-12 3,-9 -2,-12 -2,-12 0,0 1,3 1,5 0,2 -3,1 -5,-1zm-122 10c2,5 8,6 14,2 6,-4 14,-1 14,-1 -2,-6 -6,-6 -6,-6 1,2 -1,4 -8,1 -7,-2 -10,2 -11,4 -1,1 -3,0 -3,0zm-21 -19c-1,1 -1,4 0,6 3,2 5,1 10,4 7,4 7,11 7,11 2,-12 -7,-16 -12,-16 -5,0 -5,-5 -5,-5zm14 17c-3,-6 -8,-7 -11,-6 -2,1 -3,1 -3,2 -3,5 0,9 4,7 0,0 -3,0 -3,-2 0,-3 2,-3 3,-2 0,0 0,-1 2,-2 1,-1 3,-1 5,0 2,1 3,4 3,8 -1,2 -2,4 -3,7 -6,6 -9,9 -8,15 0,0 0,-3 3,-7 1,-3 3,-3 7,-9 1,-1 2,-3 2,-5 1,-2 0,-4 -1,-6zm50 4c0,0 -4,-2 -8,-8 -4,-6 -11,-10 -17,-9 0,0 3,0 3,2 1,2 -1,2 -1,2 0,0 2,1 3,-1 2,-1 5,-2 5,0 0,1 -2,1 -2,1 0,0 1,1 3,1 1,0 3,0 4,3 2,4 4,7 10,9zm-17 -23c-2,-1 -6,0 -10,3 0,0 9,-5 19,7 0,0 3,3 4,5 2,2 5,6 8,6 0,0 -5,-3 -6,-9 0,-6 -2,-9 -6,-9 0,0 3,2 2,4 -2,1 -4,1 -6,-2 -1,-1 -2,-4 -5,-5zm29 17c-1,0 -4,0 -3,3 0,2 9,3 12,-5 2,-5 -3,-9 -3,-9 0,0 4,4 1,8 -2,4 -6,4 -7,3zm-23 -9c-6,-4 -13,-5 -18,-3 -2,2 -4,5 -3,7 1,1 2,2 4,2 1,0 2,0 3,-2 1,-2 -1,-4 -3,-3 -1,1 0,2 0,2 -1,-1 1,-1 2,0 1,1 -1,2 -1,2 0,1 -1,1 -2,1 -1,0 -2,-1 -3,-2 0,-2 1,-5 3,-6 5,-2 12,-1 17,3 4,3 6,8 10,11 8,8 18,6 22,1 2,-4 3,-7 3,-9 0,-5 -3,-8 -6,-9 -4,-3 -11,-2 -15,2 -4,6 0,12 4,13 4,0 4,-4 4,-4 -1,2 -3,1 -3,1 -3,-3 -1,-6 1,-5 1,0 0,3 0,3 1,-1 2,-3 1,-4 0,-2 1,-4 1,-4 2,-2 5,-2 7,-2 3,2 6,5 5,10 0,7 -9,13 -16,10 -8,-2 -12,-10 -17,-15zm60 60c1,0 2,0 4,-3 0,-2 0,-5 0,-7 -1,-3 -1,-6 -1,-6 0,0 0,-4 3,-2 0,0 0,-2 -3,-4 -2,-2 -6,-8 -4,-9 2,-2 3,1 6,-1 0,0 -10,-8 -11,-17 0,-8 4,-13 4,-13 0,0 -9,7 -4,24 4,18 8,20 7,28 0,0 -1,5 -1,7 -1,1 -1,2 0,3zm-21 13c0,0 -9,1 -13,-6 -4,-8 -5,-10 -8,-10 0,0 3,3 3,5 0,2 -2,2 -2,2 0,0 8,12 20,9zm4 -22c-1,-1 -2,-2 -2,-2 -8,-1 -5,-4 -5,-4 0,0 0,0 -4,2 -3,2 -4,8 -4,8 5,-9 15,-4 15,-4zm9 2c4,-5 1,-10 -1,-15 -3,-7 -2,-13 -2,-13 0,0 -2,6 0,14 2,7 -2,14 -5,14 0,0 4,5 8,0zm-23 -26c4,1 4,-4 7,-10 3,-8 12,-16 12,-16 -18,12 -22,24 -19,26zm16 -29c0,0 5,-2 4,2 0,4 -11,11 -8,21 2,10 2,13 -1,16 0,0 8,-4 6,-11 -2,-7 -2,-24 14,-34 0,0 -10,0 -15,6zm6 68c8,-8 8,-18 5,-28 -1,-3 -2,-9 -4,-14 -3,-11 -1,-19 1,-22 3,-6 8,-9 9,-9 -1,1 -10,4 -12,16 -1,7 0,15 2,23 2,9 6,18 2,28 -2,4 -6,8 -10,10 -4,2 -9,1 -12,-1 -4,-3 -5,-7 -4,-11 1,-3 4,-6 7,-6 1,0 1,0 2,0 1,1 3,2 3,5 1,4 -2,1 -4,2 -3,0 -4,2 -5,0 0,0 1,7 7,5 0,0 2,-1 2,0 1,1 0,2 0,2 0,0 6,-1 4,-8 -1,-7 -11,-9 -15,-4 -1,1 -2,3 -2,4 -1,4 1,9 4,11 4,3 9,4 14,2 2,-1 4,-3 6,-5zm-48 -35c3,-3 6,0 6,2 0,3 -2,2 -4,3 -1,0 -1,2 -1,2 1,-1 3,0 3,0 3,3 2,7 2,7 6,-13 -2,-22 -5,-23 -4,-1 -4,2 -4,2 4,-1 5,2 5,2 -4,1 -2,5 -2,5zm-15 7c0,0 -8,-10 0,-18 8,-7 21,-3 26,11 0,0 -1,-9 -8,-14 -9,-6 -6,-8 -6,-8 0,0 -4,1 -3,4 1,2 0,3 -1,2 -5,0 -15,0 -17,10 0,0 1,-2 2,-2 1,1 3,0 4,-1 0,0 -5,8 3,16zm49 1c0,0 2,-3 -3,-6 -5,-4 -9,2 -11,-1 -2,-2 0,-4 0,-4 0,0 -6,-1 -6,5 -1,7 -3,17 -11,25 0,0 6,-3 12,-12 4,-8 13,-14 19,-7zm-20 30c2,-2 -1,-6 -6,-5 -2,0 -3,0 -5,1 -5,2 -2,-2 2,-4 2,-1 6,-1 8,0 0,0 1,-4 -4,-4 -1,0 -3,1 -5,3 -7,5 -17,17 -17,28 0,0 3,-16 13,-19 9,-2 11,1 13,0 1,0 1,0 1,0zm111 72c2,-3 2,-5 2,-5 0,0 -1,2 -2,4 -2,2 -7,3 -9,8 -2,5 4,9 7,7 2,-2 3,-4 1,-6 0,0 -2,-2 -4,0 0,0 -1,2 1,4 0,0 -1,-2 0,-2 0,0 1,0 1,-1 0,-1 2,0 2,1 0,0 1,1 0,2 0,0 -1,1 -1,1 -2,2 -8,-1 -6,-6 2,-4 6,-5 8,-7zm-26 -105c-3,-2 -5,3 -5,3 -2,10 7,19 7,19 -3,-4 -4,-8 -3,-12 1,-3 4,-9 1,-10zm15 15c0,0 -2,1 0,3 1,2 2,4 1,6 0,0 6,-3 3,-9 -1,-5 -6,-4 -7,-3 0,0 3,-1 5,2 1,2 -2,3 -2,1zm-33 -12c0,0 -4,4 0,7 3,3 4,0 7,5 0,0 -5,-3 -6,2 0,0 1,-1 3,1 2,1 4,0 8,1 0,0 -4,-4 -5,-10 0,-6 -1,-8 -4,-9 0,0 3,3 1,4 -2,1 -4,-1 -4,-1zm33 -32c2,-1 5,-2 6,-5 0,-2 1,-3 1,-3 0,0 -10,4 -10,12 0,7 -4,10 -4,10 0,0 8,-2 9,-7 1,-5 1,-6 3,-7 0,0 -4,-1 -6,4 0,0 0,-2 1,-4zm2 23c-3,-2 -3,-5 -1,-5 1,0 5,1 5,1 0,0 -4,-5 -13,-2 -9,3 -12,11 -12,11 0,0 4,-7 11,-5 7,2 10,3 11,5 0,0 1,-2 -1,-5zm0 14c-3,-2 -7,-2 -9,0 -4,3 -4,7 -3,10 0,1 1,1 1,2 0,0 3,3 6,1 0,0 -1,1 -2,-2 0,0 -2,2 -3,1 -1,-1 1,-2 1,-1 0,0 0,-1 -1,-1 -1,-1 -2,-2 -2,-4 0,-2 1,-4 3,-6 3,-1 6,-1 9,0 3,2 5,6 4,10 -1,8 -13,11 -20,5 -7,-6 -10,-15 -7,-23 3,-7 9,-12 14,-14 1,-1 3,-1 4,-1 2,-1 6,-1 9,1 4,3 1,6 1,7 0,0 4,0 4,-3 1,-2 -3,-4 -2,-5 0,0 1,-1 2,-1 0,0 -1,0 -2,0 -3,-1 -9,-1 -16,1 -1,1 -2,2 -4,2 -4,3 -7,6 -7,6 -11,13 -3,25 -3,25 8,9 15,9 19,9 4,-1 9,-5 9,-9 1,-4 -1,-9 -5,-10zm-8 46c-5,4 -7,14 1,21 4,4 9,6 12,10 4,5 6,12 3,17 -1,2 -3,3 -5,3 -2,-1 -2,-2 -3,-3 0,0 1,-1 2,-2 0,0 0,-1 1,0 2,0 1,2 0,2 0,0 2,0 2,-1 1,-2 -1,-4 -3,-3 -2,1 -2,3 -2,4 0,1 1,3 3,3 2,1 5,-1 6,-3 2,-5 1,-12 -4,-18 -5,-5 -13,-8 -15,-16 -3,-7 3,-16 10,-17 4,0 8,2 9,5 1,2 1,5 -2,7 0,0 -1,1 -3,1 -2,0 -3,0 -4,1 0,0 2,-1 3,1 1,1 -2,3 -5,1 0,0 -1,-2 0,-4 0,0 -4,1 -3,5 1,4 8,7 13,3 4,-4 5,-11 2,-15 -2,-3 -5,-6 -9,-5 -3,0 -6,0 -9,3zm5 48c-3,-7 -1,-8 1,-7 0,0 0,-4 -6,-6 0,0 3,7 -1,14 -3,6 -2,12 2,14 0,0 -1,-3 1,-3 2,-1 5,-5 3,-12zm-5 19c0,0 7,0 12,6 2,5 1,7 4,10 1,2 5,1 5,0 0,0 -4,0 -4,-5 0,-5 -5,-14 -17,-11zm4 2c-2,-1 -4,-1 -6,0 -2,0 -4,1 -5,2 -5,4 -6,6 -9,8 -3,2 -7,3 -7,3 7,0 9,-3 16,-9 2,-2 4,-3 6,-3 4,-1 7,0 8,2 2,2 1,4 0,6 -1,1 -2,2 -2,2 1,0 1,2 -1,2 -3,1 -3,-3 -3,-3 -2,5 3,8 7,5 1,-1 2,-2 2,-3 1,-4 0,-9 -6,-12zm10 -28c2,0 2,3 2,3 1,-6 -3,-13 -9,-17 -7,-3 -8,-7 -8,-7 1,5 5,8 8,9 4,1 4,3 4,4 -1,2 1,3 1,3 0,0 0,-1 1,-2 1,0 1,3 0,5 -2,1 -1,3 -1,3 0,0 0,-1 2,-1zm8 -5c-1,-3 -4,-4 -5,-5 -3,-2 -4,-4 -2,-5 1,-2 4,1 4,1 -1,-4 -4,-6 -10,-6 -6,0 -9,-5 -9,-5 0,3 4,6 6,7 2,2 5,4 5,4 13,10 9,19 9,19 2,-4 3,-8 2,-10zm-7 -35c0,0 -4,-4 -9,-2 -8,3 -7,11 -5,12 2,0 3,-2 2,-3 0,-1 -1,-5 3,-8 4,-3 9,1 9,1zm-15 -24c-9,-1 -16,-11 -16,-11 -3,3 0,4 -1,6 -2,3 -8,-1 -9,-4 -2,-2 -5,-3 -5,-3 2,4 -1,4 -1,4 0,0 -3,0 -7,-1 -2,0 -5,0 -7,1 -3,1 -3,2 -2,3 0,1 1,1 2,1 3,-1 8,-2 8,-2 8,-1 10,2 27,6 18,4 24,-5 24,-5 0,0 -4,5 -13,5zm-61 16c-3,13 10,20 10,20 0,0 0,-2 2,-2 2,0 5,3 5,3 0,-3 -2,-4 -10,-8 -7,-4 -7,-13 -7,-13zm27 7c2,-4 2,-4 2,-4 0,0 -4,3 -5,-5 0,0 -1,-1 -2,-2 0,0 5,10 -3,15 0,0 6,-1 8,-4zm7 -17c8,2 14,-1 14,-1 0,0 -6,1 -13,-1 -5,-2 -11,-5 -15,-1 -5,4 0,9 0,9 0,-4 7,-8 14,-6zm13 19c1,3 13,-1 25,-20 0,0 -8,10 -15,13 -6,3 -12,4 -10,7zm0 -17c-7,-1 -11,6 -11,6 3,-3 6,-3 16,-1 10,3 17,-8 21,-9 4,0 2,4 2,4 6,-5 5,-15 5,-15 -9,16 -26,16 -33,15zm2 -6c-6,-1 -11,-3 -14,-4 -11,-2 -20,-1 -28,7 -2,2 -4,4 -5,6 -2,5 -1,10 2,13 3,4 8,6 11,4 2,0 3,-1 4,-2 5,-4 3,-14 -4,-15 -6,-1 -8,5 -8,5 0,0 1,-2 2,-1 1,1 0,2 0,2 -2,7 6,8 6,8 -2,-2 -1,-3 0,-5 0,-3 -2,-6 2,-5 2,0 3,2 4,3 0,1 0,1 0,2 0,3 -2,7 -6,8 -3,1 -8,-1 -10,-4 -3,-3 -4,-8 -2,-13 2,-4 6,-7 10,-9 9,-5 19,-1 27,0 9,2 17,3 23,2 12,-3 16,-12 17,-13 -1,1 -3,6 -9,9 -4,2 -11,5 -22,2zm-6 49c0,0 4,2 5,-2 0,0 3,1 2,5 0,0 4,0 2,-4 -1,-3 -10,-11 -22,-4 0,0 4,-1 6,2 0,0 1,2 1,3 0,0 1,0 2,-1 0,-2 -1,-4 2,-5 2,0 5,3 2,6zm0 -10c15,4 19,16 12,25 -7,8 -18,1 -18,1 8,8 16,2 16,2 -1,1 -2,3 -1,4 1,1 -1,3 -1,3 9,-3 9,-14 8,-18 0,-1 1,-2 3,-2 3,1 4,-2 4,-2 0,0 -2,2 -9,-6 -5,-7 -14,-7 -14,-7zm-2 -20c-3,-5 -6,-3 -6,-3 6,5 1,14 -7,19 -9,6 -12,12 -12,12 8,-8 19,-10 25,-11 6,-1 4,-6 4,-6 0,0 -1,2 -3,-1 -3,-2 2,-5 -1,-10zm-71 -148l1 46 4 -46 -5 0zm2 45l5 -44 5 1 -10 43zm1 1l11 -43 4 1 -15 42zm1 0l17 -40 3 2 -20 38zm5 5l36 -8 0 5 -36 3zm-4 -5l27 -33 2 3 -29 30zm1 1l30 -29 2 4 -32 25zm0 1l34 -24 1 4 -35 20zm1 1l35 -19 1 4 -36 15zm1 1l36 -13 0 3 -36 10zm-10 -50l1 46 -7 -45 6 -1zm0 46l-8 -44 -4 1 12 43zm-1 0l-13 -43 -4 3 17 40zm-1 0l-19 -39 -3 2 22 37zm0 0l-25 -35 -3 3 28 32zm-4 5l-37 -5 0 4 37 1zm3 -4l-28 -32 -3 3 31 29zm-1 0l-31 -27 -2 4 33 23zm0 1l-35 -22 -1 4 36 18zm-1 1l-36 -16 -1 4 37 12zm126 109l44 -7 -1 -5 -43 12zm0 -1l42 -13 -2 -4 -40 17zm0 -1l39 -18 -3 -4 -36 22zm-6 -4l6 -37 -4 0 -2 37zm5 3l32 -28 -3 -2 -29 30zm-1 -1l28 -31 -4 -2 -24 33zm-1 0l23 -34 -4 -2 -19 36zm-1 -1l17 -36 -3 -1 -14 37zm-1 -1l12 -36 -4 0 -8 36zm50 8l-46 1 46 5 0 -6zm-45 2l44 6 -1 5 -43 -11zm0 1l43 12 -3 4 -40 -16zm0 1l39 18 -2 3 -37 -21zm-1 0l37 23 -3 4 -34 -27zm-5 5l7 36 -4 0 -3 -36zm5 -4l33 27 -4 3 -29 -30zm-1 1l28 30 -3 2 -25 -32zm0 0l22 34 -3 1 -19 -35zm-2 1l18 36 -3 0 -15 -36zm-1 1l13 36 -4 1 -9 -37zm-122 -118l-36 -11 -1 4 37 7z"/>
  </g>
 </g>
</svg>
